<svg class="main-svg" xmlns="http://www.w3.org/2000/svg" xmlns:xlink="http://www.w3.org/1999/xlink" width="700" height="600" viewBox="0 0 700 600"><rect x="0" y="0" width="700" height="600" style="fill: rgb(255, 255, 255); fill-opacity: 1;"/><defs id="defs-0566d6"><g class="clips"><clipPath id="clip0566d6xyplot" class="plotclip"><rect width="491" height="420"/></clipPath><clipPath class="axesclip" id="clip0566d6x"><rect x="129" y="0" width="491" height="600"/></clipPath><clipPath class="axesclip" id="clip0566d6y"><rect x="0" y="100" width="700" height="420"/></clipPath><clipPath class="axesclip" id="clip0566d6xy"><rect x="129" y="100" width="491" height="420"/></clipPath></g><g class="gradients"/></defs><g class="bglayer"><rect class="bg" x="129" y="100" width="491" height="420" style="fill: rgb(229, 236, 246); fill-opacity: 1; stroke-width: 0;"/></g><g class="layer-below"><g class="imagelayer"/><g class="shapelayer"/></g><g class="cartesianlayer"><g class="subplot xy"><g class="layer-subplot"><g class="shapelayer"/><g class="imagelayer"/></g><g class="gridlayer"><g class="x"><path class="xgrid crisp" transform="translate(156.55,0)" d="M0,100v420" style="stroke: rgb(255, 255, 255); stroke-opacity: 1; stroke-width: 1px;"/><path class="xgrid crisp" transform="translate(258.41999999999996,0)" d="M0,100v420" style="stroke: rgb(255, 255, 255); stroke-opacity: 1; stroke-width: 1px;"/><path class="xgrid crisp" transform="translate(360.28999999999996,0)" d="M0,100v420" style="stroke: rgb(255, 255, 255); stroke-opacity: 1; stroke-width: 1px;"/><path class="xgrid crisp" transform="translate(462.16,0)" d="M0,100v420" style="stroke: rgb(255, 255, 255); stroke-opacity: 1; stroke-width: 1px;"/><path class="xgrid crisp" transform="translate(564.03,0)" d="M0,100v420" style="stroke: rgb(255, 255, 255); stroke-opacity: 1; stroke-width: 1px;"/></g><g class="y"><path class="ygrid crisp" transform="translate(0,507.27)" d="M129,0h491" style="stroke: rgb(255, 255, 255); stroke-opacity: 1; stroke-width: 1px;"/><path class="ygrid crisp" transform="translate(0,494.55)" d="M129,0h491" style="stroke: rgb(255, 255, 255); stroke-opacity: 1; stroke-width: 1px;"/><path class="ygrid crisp" transform="translate(0,481.82)" d="M129,0h491" style="stroke: rgb(255, 255, 255); stroke-opacity: 1; stroke-width: 1px;"/><path class="ygrid crisp" transform="translate(0,469.09)" d="M129,0h491" style="stroke: rgb(255, 255, 255); stroke-opacity: 1; stroke-width: 1px;"/><path class="ygrid crisp" transform="translate(0,456.36)" d="M129,0h491" style="stroke: rgb(255, 255, 255); stroke-opacity: 1; stroke-width: 1px;"/><path class="ygrid crisp" transform="translate(0,443.64)" d="M129,0h491" style="stroke: rgb(255, 255, 255); stroke-opacity: 1; stroke-width: 1px;"/><path class="ygrid crisp" transform="translate(0,430.91)" d="M129,0h491" style="stroke: rgb(255, 255, 255); stroke-opacity: 1; stroke-width: 1px;"/><path class="ygrid crisp" transform="translate(0,418.18)" d="M129,0h491" style="stroke: rgb(255, 255, 255); stroke-opacity: 1; stroke-width: 1px;"/><path class="ygrid crisp" transform="translate(0,405.45)" d="M129,0h491" style="stroke: rgb(255, 255, 255); stroke-opacity: 1; stroke-width: 1px;"/><path class="ygrid crisp" transform="translate(0,392.73)" d="M129,0h491" style="stroke: rgb(255, 255, 255); stroke-opacity: 1; stroke-width: 1px;"/><path class="ygrid crisp" transform="translate(0,380)" d="M129,0h491" style="stroke: rgb(255, 255, 255); stroke-opacity: 1; stroke-width: 1px;"/><path class="ygrid crisp" transform="translate(0,367.27)" d="M129,0h491" style="stroke: rgb(255, 255, 255); stroke-opacity: 1; stroke-width: 1px;"/><path class="ygrid crisp" transform="translate(0,354.55)" d="M129,0h491" style="stroke: rgb(255, 255, 255); stroke-opacity: 1; stroke-width: 1px;"/><path class="ygrid crisp" transform="translate(0,341.82)" d="M129,0h491" style="stroke: rgb(255, 255, 255); stroke-opacity: 1; stroke-width: 1px;"/><path class="ygrid crisp" transform="translate(0,329.09000000000003)" d="M129,0h491" style="stroke: rgb(255, 255, 255); stroke-opacity: 1; stroke-width: 1px;"/><path class="ygrid crisp" transform="translate(0,316.36)" d="M129,0h491" style="stroke: rgb(255, 255, 255); stroke-opacity: 1; stroke-width: 1px;"/><path class="ygrid crisp" transform="translate(0,303.64)" d="M129,0h491" style="stroke: rgb(255, 255, 255); stroke-opacity: 1; stroke-width: 1px;"/><path class="ygrid crisp" transform="translate(0,290.90999999999997)" d="M129,0h491" style="stroke: rgb(255, 255, 255); stroke-opacity: 1; stroke-width: 1px;"/><path class="ygrid crisp" transform="translate(0,278.18)" d="M129,0h491" style="stroke: rgb(255, 255, 255); stroke-opacity: 1; stroke-width: 1px;"/><path class="ygrid crisp" transform="translate(0,265.45)" d="M129,0h491" style="stroke: rgb(255, 255, 255); stroke-opacity: 1; stroke-width: 1px;"/><path class="ygrid crisp" transform="translate(0,252.73)" d="M129,0h491" style="stroke: rgb(255, 255, 255); stroke-opacity: 1; stroke-width: 1px;"/><path class="ygrid crisp" transform="translate(0,240)" d="M129,0h491" style="stroke: rgb(255, 255, 255); stroke-opacity: 1; stroke-width: 1px;"/><path class="ygrid crisp" transform="translate(0,227.26999999999998)" d="M129,0h491" style="stroke: rgb(255, 255, 255); stroke-opacity: 1; stroke-width: 1px;"/><path class="ygrid crisp" transform="translate(0,214.55)" d="M129,0h491" style="stroke: rgb(255, 255, 255); stroke-opacity: 1; stroke-width: 1px;"/><path class="ygrid crisp" transform="translate(0,201.82)" d="M129,0h491" style="stroke: rgb(255, 255, 255); stroke-opacity: 1; stroke-width: 1px;"/><path class="ygrid crisp" transform="translate(0,189.09)" d="M129,0h491" style="stroke: rgb(255, 255, 255); stroke-opacity: 1; stroke-width: 1px;"/><path class="ygrid crisp" transform="translate(0,176.36)" d="M129,0h491" style="stroke: rgb(255, 255, 255); stroke-opacity: 1; stroke-width: 1px;"/><path class="ygrid crisp" transform="translate(0,163.64)" d="M129,0h491" style="stroke: rgb(255, 255, 255); stroke-opacity: 1; stroke-width: 1px;"/><path class="ygrid crisp" transform="translate(0,150.91)" d="M129,0h491" style="stroke: rgb(255, 255, 255); stroke-opacity: 1; stroke-width: 1px;"/><path class="ygrid crisp" transform="translate(0,138.18)" d="M129,0h491" style="stroke: rgb(255, 255, 255); stroke-opacity: 1; stroke-width: 1px;"/><path class="ygrid crisp" transform="translate(0,125.45)" d="M129,0h491" style="stroke: rgb(255, 255, 255); stroke-opacity: 1; stroke-width: 1px;"/></g></g><g class="zerolinelayer"/><path class="xlines-below"/><path class="ylines-below"/><g class="overlines-below"/><g class="xaxislayer-below"/><g class="yaxislayer-below"/><g class="overaxes-below"/><g class="plot" transform="translate(129, 100)" clip-path="url('#clip0566d6xyplot')"><g class="scatterlayer mlayer"><g class="trace scatter tracede5ca2" style="stroke-miterlimit: 2; opacity: 1;"><g class="fills"><g><path class="js-fill" d="M403.73,371.64L427.91,371.64L427.91,366.55L403.73,366.55ZM427.91,384.36L439.18,384.36L439.18,379.27L427.91,379.27ZM439.18,397.09L448.34,397.09L448.34,392L439.18,392ZM448.34,409.82L463.45,409.82L463.45,404.73L448.34,404.73Z" style="fill: rgb(127, 127, 127); fill-opacity: 1; stroke-width: 0;"/></g></g><g class="errorbars"/><g class="lines"/><g class="points"/><g class="text"/></g><g class="trace scatter tracec1374e" style="stroke-miterlimit: 2; opacity: 1;"><g class="fills"><g><path class="js-fill" d="M101.19,91.64L110.08,91.64L110.08,86.55L101.19,86.55ZM110.08,104.36L113.71,104.36L113.71,99.27L110.08,99.27ZM113.71,117.09L132.38,117.09L132.38,112L113.71,112ZM132.38,129.82L142.77,129.82L142.77,124.73L132.38,124.73ZM142.77,142.55L145.08,142.55L145.08,137.45L142.77,137.45ZM145.08,155.27L155.45,155.27L155.45,150.18L145.08,150.18Z" style="fill: rgb(140, 86, 75); fill-opacity: 1; stroke-width: 0;"/></g></g><g class="errorbars"/><g class="lines"/><g class="points"/><g class="text"/></g><g class="trace scatter tracec0b45c" style="stroke-miterlimit: 2; opacity: 1;"><g class="fills"><g><path class="js-fill" d="M164.39,180.73L180.48,180.73L180.48,175.64L164.39,175.64ZM180.48,193.45L208.05,193.45L208.05,188.36L180.48,188.36Z" style="fill: rgb(148, 103, 189); fill-opacity: 1; stroke-width: 0;"/></g></g><g class="errorbars"/><g class="lines"/><g class="points"/><g class="text"/></g><g class="trace scatter trace7ae2ef" style="stroke-miterlimit: 2; opacity: 1;"><g class="fills"><g><path class="js-fill" d="M155.45,168L164.39,168L164.39,162.91L155.45,162.91Z" style="fill: rgb(172, 84, 6); fill-opacity: 1; stroke-width: 0;"/></g></g><g class="errorbars"/><g class="lines"/><g class="points"/><g class="text"/></g><g class="trace scatter trace62f9d8" style="stroke-miterlimit: 2; opacity: 1;"><g class="fills"><g><path class="js-fill" d="M254.26,257.09L296.57,257.09L296.57,252L254.26,252ZM296.57,269.82L307.83,269.82L307.83,264.73L296.57,264.73ZM307.83,282.55L330.11,282.55L330.11,277.45L307.83,277.45ZM330.11,295.27L337.51,295.27L337.51,290.18L330.11,290.18ZM337.51,308L351.35,308L351.35,302.91L337.51,302.91ZM351.35,320.73L357.66,320.73L357.66,315.64L351.35,315.64ZM357.66,333.45L365.72,333.45L365.72,328.36L357.66,328.36ZM365.72,346.18L392.36,346.18L392.36,341.09L365.72,341.09Z" style="fill: rgb(188, 189, 34); fill-opacity: 1; stroke-width: 0;"/></g></g><g class="errorbars"/><g class="lines"/><g class="points"/><g class="text"/></g><g class="trace scatter trace66e3ec" style="stroke-miterlimit: 2; opacity: 1;"><g class="fills"><g><path class="js-fill" d="M77.8,66.18L96.02,66.18L96.02,61.09L77.8,61.09Z" style="fill: rgb(214, 39, 40); fill-opacity: 1; stroke-width: 0;"/></g></g><g class="errorbars"/><g class="lines"/><g class="points"/><g class="text"/></g><g class="trace scatter trace9538e8" style="stroke-miterlimit: 2; opacity: 1;"><g class="fills"><g><path class="js-fill" d="M96.02,78.91L101.19,78.91L101.19,73.82L96.02,73.82Z" style="fill: rgb(227, 119, 194); fill-opacity: 1; stroke-width: 0;"/></g></g><g class="errorbars"/><g class="lines"/><g class="points"/><g class="text"/></g><g class="trace scatter trace8facca" style="stroke-miterlimit: 2; opacity: 1;"><g class="fills"><g><path class="js-fill" d="M392.36,358.91L403.73,358.91L403.73,353.82L392.36,353.82Z" style="fill: rgb(23, 190, 207); fill-opacity: 1; stroke-width: 0;"/></g></g><g class="errorbars"/><g class="lines"/><g class="points"/><g class="text"/></g><g class="trace scatter traceeed7e2" style="stroke-miterlimit: 2; opacity: 1;"><g class="fills"><g><path class="js-fill" d="M27.55,28L31.17,28L31.17,22.91L27.55,22.91Z" style="fill: rgb(255, 127, 14); fill-opacity: 1; stroke-width: 0;"/></g></g><g class="errorbars"/><g class="lines"/><g class="points"/><g class="text"/></g><g class="trace scatter trace8c9b5a" style="stroke-miterlimit: 2; opacity: 1;"><g class="fills"><g><path class="js-fill" d="M31.17,40.73L55.88,40.73L55.88,35.64L31.17,35.64ZM55.88,53.45L77.8,53.45L77.8,48.36L55.88,48.36Z" style="fill: rgb(31, 119, 180); fill-opacity: 1; stroke-width: 0;"/></g></g><g class="errorbars"/><g class="lines"/><g class="points"/><g class="text"/></g><g class="trace scatter trace8b41e3" style="stroke-miterlimit: 2; opacity: 1;"><g class="fills"><g><path class="js-fill" d="M208.05,206.18L216.31,206.18L216.31,201.09L208.05,201.09ZM216.31,218.91L220.03,218.91L220.03,213.82L216.31,213.82ZM220.03,231.64L244.5,231.64L244.5,226.55L220.03,226.55ZM244.5,244.36L254.26,244.36L254.26,239.27L244.5,239.27Z" style="fill: rgb(44, 160, 44); fill-opacity: 1; stroke-width: 0;"/></g></g><g class="errorbars"/><g class="lines"/><g class="points"/><g class="text"/></g><g class="trace scatter trace72704f" style="stroke-miterlimit: 2; opacity: 1;"><g class="fills"/><g class="errorbars"/><g class="lines"/><g class="points"><path class="point" transform="translate(403.73,369.09)" d="M0.5,0A0.5,0.5 0 1,1 0,-0.5A0.5,0.5 0 0,1 0.5,0Z" style="opacity: 0; stroke-width: 0px; fill: rgb(127, 127, 127); fill-opacity: 1;"/><path class="point" transform="translate(427.91,369.09)" d="M0.5,0A0.5,0.5 0 1,1 0,-0.5A0.5,0.5 0 0,1 0.5,0Z" style="opacity: 0; stroke-width: 0px; fill: rgb(127, 127, 127); fill-opacity: 1;"/><path class="point" transform="translate(427.91,381.82)" d="M0.5,0A0.5,0.5 0 1,1 0,-0.5A0.5,0.5 0 0,1 0.5,0Z" style="opacity: 0; stroke-width: 0px; fill: rgb(127, 127, 127); fill-opacity: 1;"/><path class="point" transform="translate(439.18,381.82)" d="M0.5,0A0.5,0.5 0 1,1 0,-0.5A0.5,0.5 0 0,1 0.5,0Z" style="opacity: 0; stroke-width: 0px; fill: rgb(127, 127, 127); fill-opacity: 1;"/><path class="point" transform="translate(439.18,394.55)" d="M0.5,0A0.5,0.5 0 1,1 0,-0.5A0.5,0.5 0 0,1 0.5,0Z" style="opacity: 0; stroke-width: 0px; fill: rgb(127, 127, 127); fill-opacity: 1;"/><path class="point" transform="translate(448.34,394.55)" d="M0.5,0A0.5,0.5 0 1,1 0,-0.5A0.5,0.5 0 0,1 0.5,0Z" style="opacity: 0; stroke-width: 0px; fill: rgb(127, 127, 127); fill-opacity: 1;"/><path class="point" transform="translate(448.34,407.27)" d="M0.5,0A0.5,0.5 0 1,1 0,-0.5A0.5,0.5 0 0,1 0.5,0Z" style="opacity: 0; stroke-width: 0px; fill: rgb(127, 127, 127); fill-opacity: 1;"/><path class="point" transform="translate(463.45,407.27)" d="M0.5,0A0.5,0.5 0 1,1 0,-0.5A0.5,0.5 0 0,1 0.5,0Z" style="opacity: 0; stroke-width: 0px; fill: rgb(127, 127, 127); fill-opacity: 1;"/></g><g class="text"/></g><g class="trace scatter trace6a20aa" style="stroke-miterlimit: 2; opacity: 1;"><g class="fills"/><g class="errorbars"/><g class="lines"/><g class="points"><path class="point" transform="translate(101.19,89.09)" d="M0.5,0A0.5,0.5 0 1,1 0,-0.5A0.5,0.5 0 0,1 0.5,0Z" style="opacity: 0; stroke-width: 0px; fill: rgb(140, 86, 75); fill-opacity: 1;"/><path class="point" transform="translate(110.08,89.09)" d="M0.5,0A0.5,0.5 0 1,1 0,-0.5A0.5,0.5 0 0,1 0.5,0Z" style="opacity: 0; stroke-width: 0px; fill: rgb(140, 86, 75); fill-opacity: 1;"/><path class="point" transform="translate(110.08,101.82)" d="M0.5,0A0.5,0.5 0 1,1 0,-0.5A0.5,0.5 0 0,1 0.5,0Z" style="opacity: 0; stroke-width: 0px; fill: rgb(140, 86, 75); fill-opacity: 1;"/><path class="point" transform="translate(113.71,101.82)" d="M0.5,0A0.5,0.5 0 1,1 0,-0.5A0.5,0.5 0 0,1 0.5,0Z" style="opacity: 0; stroke-width: 0px; fill: rgb(140, 86, 75); fill-opacity: 1;"/><path class="point" transform="translate(113.71,114.55)" d="M0.5,0A0.5,0.5 0 1,1 0,-0.5A0.5,0.5 0 0,1 0.5,0Z" style="opacity: 0; stroke-width: 0px; fill: rgb(140, 86, 75); fill-opacity: 1;"/><path class="point" transform="translate(132.38,114.55)" d="M0.5,0A0.5,0.5 0 1,1 0,-0.5A0.5,0.5 0 0,1 0.5,0Z" style="opacity: 0; stroke-width: 0px; fill: rgb(140, 86, 75); fill-opacity: 1;"/><path class="point" transform="translate(132.38,127.27)" d="M0.5,0A0.5,0.5 0 1,1 0,-0.5A0.5,0.5 0 0,1 0.5,0Z" style="opacity: 0; stroke-width: 0px; fill: rgb(140, 86, 75); fill-opacity: 1;"/><path class="point" transform="translate(142.77,127.27)" d="M0.5,0A0.5,0.5 0 1,1 0,-0.5A0.5,0.5 0 0,1 0.5,0Z" style="opacity: 0; stroke-width: 0px; fill: rgb(140, 86, 75); fill-opacity: 1;"/><path class="point" transform="translate(142.77,140)" d="M0.5,0A0.5,0.5 0 1,1 0,-0.5A0.5,0.5 0 0,1 0.5,0Z" style="opacity: 0; stroke-width: 0px; fill: rgb(140, 86, 75); fill-opacity: 1;"/><path class="point" transform="translate(145.08,140)" d="M0.5,0A0.5,0.5 0 1,1 0,-0.5A0.5,0.5 0 0,1 0.5,0Z" style="opacity: 0; stroke-width: 0px; fill: rgb(140, 86, 75); fill-opacity: 1;"/><path class="point" transform="translate(145.08,152.73)" d="M0.5,0A0.5,0.5 0 1,1 0,-0.5A0.5,0.5 0 0,1 0.5,0Z" style="opacity: 0; stroke-width: 0px; fill: rgb(140, 86, 75); fill-opacity: 1;"/><path class="point" transform="translate(155.45,152.73)" d="M0.5,0A0.5,0.5 0 1,1 0,-0.5A0.5,0.5 0 0,1 0.5,0Z" style="opacity: 0; stroke-width: 0px; fill: rgb(140, 86, 75); fill-opacity: 1;"/></g><g class="text"/></g><g class="trace scatter tracea79c46" style="stroke-miterlimit: 2; opacity: 1;"><g class="fills"/><g class="errorbars"/><g class="lines"/><g class="points"><path class="point" transform="translate(164.39,178.18)" d="M0.5,0A0.5,0.5 0 1,1 0,-0.5A0.5,0.5 0 0,1 0.5,0Z" style="opacity: 0; stroke-width: 0px; fill: rgb(148, 103, 189); fill-opacity: 1;"/><path class="point" transform="translate(180.48,178.18)" d="M0.5,0A0.5,0.5 0 1,1 0,-0.5A0.5,0.5 0 0,1 0.5,0Z" style="opacity: 0; stroke-width: 0px; fill: rgb(148, 103, 189); fill-opacity: 1;"/><path class="point" transform="translate(180.48,190.91)" d="M0.5,0A0.5,0.5 0 1,1 0,-0.5A0.5,0.5 0 0,1 0.5,0Z" style="opacity: 0; stroke-width: 0px; fill: rgb(148, 103, 189); fill-opacity: 1;"/><path class="point" transform="translate(208.05,190.91)" d="M0.5,0A0.5,0.5 0 1,1 0,-0.5A0.5,0.5 0 0,1 0.5,0Z" style="opacity: 0; stroke-width: 0px; fill: rgb(148, 103, 189); fill-opacity: 1;"/></g><g class="text"/></g><g class="trace scatter trace1699d1" style="stroke-miterlimit: 2; opacity: 1;"><g class="fills"/><g class="errorbars"/><g class="lines"/><g class="points"><path class="point" transform="translate(155.45,165.45)" d="M0.5,0A0.5,0.5 0 1,1 0,-0.5A0.5,0.5 0 0,1 0.5,0Z" style="opacity: 0; stroke-width: 0px; fill: rgb(172, 84, 6); fill-opacity: 1;"/><path class="point" transform="translate(164.39,165.45)" d="M0.5,0A0.5,0.5 0 1,1 0,-0.5A0.5,0.5 0 0,1 0.5,0Z" style="opacity: 0; stroke-width: 0px; fill: rgb(172, 84, 6); fill-opacity: 1;"/></g><g class="text"/></g><g class="trace scatter trace749773" style="stroke-miterlimit: 2; opacity: 1;"><g class="fills"/><g class="errorbars"/><g class="lines"/><g class="points"><path class="point" transform="translate(254.26,254.55)" d="M0.5,0A0.5,0.5 0 1,1 0,-0.5A0.5,0.5 0 0,1 0.5,0Z" style="opacity: 0; stroke-width: 0px; fill: rgb(188, 189, 34); fill-opacity: 1;"/><path class="point" transform="translate(296.57,254.55)" d="M0.5,0A0.5,0.5 0 1,1 0,-0.5A0.5,0.5 0 0,1 0.5,0Z" style="opacity: 0; stroke-width: 0px; fill: rgb(188, 189, 34); fill-opacity: 1;"/><path class="point" transform="translate(296.57,267.27)" d="M0.5,0A0.5,0.5 0 1,1 0,-0.5A0.5,0.5 0 0,1 0.5,0Z" style="opacity: 0; stroke-width: 0px; fill: rgb(188, 189, 34); fill-opacity: 1;"/><path class="point" transform="translate(307.83,267.27)" d="M0.5,0A0.5,0.5 0 1,1 0,-0.5A0.5,0.5 0 0,1 0.5,0Z" style="opacity: 0; stroke-width: 0px; fill: rgb(188, 189, 34); fill-opacity: 1;"/><path class="point" transform="translate(307.83,280)" d="M0.5,0A0.5,0.5 0 1,1 0,-0.5A0.5,0.5 0 0,1 0.5,0Z" style="opacity: 0; stroke-width: 0px; fill: rgb(188, 189, 34); fill-opacity: 1;"/><path class="point" transform="translate(330.11,280)" d="M0.5,0A0.5,0.5 0 1,1 0,-0.5A0.5,0.5 0 0,1 0.5,0Z" style="opacity: 0; stroke-width: 0px; fill: rgb(188, 189, 34); fill-opacity: 1;"/><path class="point" transform="translate(330.11,292.73)" d="M0.5,0A0.5,0.5 0 1,1 0,-0.5A0.5,0.5 0 0,1 0.5,0Z" style="opacity: 0; stroke-width: 0px; fill: rgb(188, 189, 34); fill-opacity: 1;"/><path class="point" transform="translate(337.51,292.73)" d="M0.5,0A0.5,0.5 0 1,1 0,-0.5A0.5,0.5 0 0,1 0.5,0Z" style="opacity: 0; stroke-width: 0px; fill: rgb(188, 189, 34); fill-opacity: 1;"/><path class="point" transform="translate(337.51,305.45)" d="M0.5,0A0.5,0.5 0 1,1 0,-0.5A0.5,0.5 0 0,1 0.5,0Z" style="opacity: 0; stroke-width: 0px; fill: rgb(188, 189, 34); fill-opacity: 1;"/><path class="point" transform="translate(351.35,305.45)" d="M0.5,0A0.5,0.5 0 1,1 0,-0.5A0.5,0.5 0 0,1 0.5,0Z" style="opacity: 0; stroke-width: 0px; fill: rgb(188, 189, 34); fill-opacity: 1;"/><path class="point" transform="translate(351.35,318.18)" d="M0.5,0A0.5,0.5 0 1,1 0,-0.5A0.5,0.5 0 0,1 0.5,0Z" style="opacity: 0; stroke-width: 0px; fill: rgb(188, 189, 34); fill-opacity: 1;"/><path class="point" transform="translate(357.66,318.18)" d="M0.5,0A0.5,0.5 0 1,1 0,-0.5A0.5,0.5 0 0,1 0.5,0Z" style="opacity: 0; stroke-width: 0px; fill: rgb(188, 189, 34); fill-opacity: 1;"/><path class="point" transform="translate(357.66,330.91)" d="M0.5,0A0.5,0.5 0 1,1 0,-0.5A0.5,0.5 0 0,1 0.5,0Z" style="opacity: 0; stroke-width: 0px; fill: rgb(188, 189, 34); fill-opacity: 1;"/><path class="point" transform="translate(365.72,330.91)" d="M0.5,0A0.5,0.5 0 1,1 0,-0.5A0.5,0.5 0 0,1 0.5,0Z" style="opacity: 0; stroke-width: 0px; fill: rgb(188, 189, 34); fill-opacity: 1;"/><path class="point" transform="translate(365.72,343.64)" d="M0.5,0A0.5,0.5 0 1,1 0,-0.5A0.5,0.5 0 0,1 0.5,0Z" style="opacity: 0; stroke-width: 0px; fill: rgb(188, 189, 34); fill-opacity: 1;"/><path class="point" transform="translate(392.36,343.64)" d="M0.5,0A0.5,0.5 0 1,1 0,-0.5A0.5,0.5 0 0,1 0.5,0Z" style="opacity: 0; stroke-width: 0px; fill: rgb(188, 189, 34); fill-opacity: 1;"/></g><g class="text"/></g><g class="trace scatter trace1f0acc" style="stroke-miterlimit: 2; opacity: 1;"><g class="fills"/><g class="errorbars"/><g class="lines"/><g class="points"><path class="point" transform="translate(77.8,63.64)" d="M0.5,0A0.5,0.5 0 1,1 0,-0.5A0.5,0.5 0 0,1 0.5,0Z" style="opacity: 0; stroke-width: 0px; fill: rgb(214, 39, 40); fill-opacity: 1;"/><path class="point" transform="translate(96.02,63.64)" d="M0.5,0A0.5,0.5 0 1,1 0,-0.5A0.5,0.5 0 0,1 0.5,0Z" style="opacity: 0; stroke-width: 0px; fill: rgb(214, 39, 40); fill-opacity: 1;"/></g><g class="text"/></g><g class="trace scatter traceadf8a9" style="stroke-miterlimit: 2; opacity: 1;"><g class="fills"/><g class="errorbars"/><g class="lines"/><g class="points"><path class="point" transform="translate(96.02,76.36)" d="M0.5,0A0.5,0.5 0 1,1 0,-0.5A0.5,0.5 0 0,1 0.5,0Z" style="opacity: 0; stroke-width: 0px; fill: rgb(227, 119, 194); fill-opacity: 1;"/><path class="point" transform="translate(101.19,76.36)" d="M0.5,0A0.5,0.5 0 1,1 0,-0.5A0.5,0.5 0 0,1 0.5,0Z" style="opacity: 0; stroke-width: 0px; fill: rgb(227, 119, 194); fill-opacity: 1;"/></g><g class="text"/></g><g class="trace scatter trace57d378" style="stroke-miterlimit: 2; opacity: 1;"><g class="fills"/><g class="errorbars"/><g class="lines"/><g class="points"><path class="point" transform="translate(392.36,356.36)" d="M0.5,0A0.5,0.5 0 1,1 0,-0.5A0.5,0.5 0 0,1 0.5,0Z" style="opacity: 0; stroke-width: 0px; fill: rgb(23, 190, 207); fill-opacity: 1;"/><path class="point" transform="translate(403.73,356.36)" d="M0.5,0A0.5,0.5 0 1,1 0,-0.5A0.5,0.5 0 0,1 0.5,0Z" style="opacity: 0; stroke-width: 0px; fill: rgb(23, 190, 207); fill-opacity: 1;"/></g><g class="text"/></g><g class="trace scatter trace9644f8" style="stroke-miterlimit: 2; opacity: 1;"><g class="fills"/><g class="errorbars"/><g class="lines"/><g class="points"><path class="point" transform="translate(27.55,25.45)" d="M0.5,0A0.5,0.5 0 1,1 0,-0.5A0.5,0.5 0 0,1 0.5,0Z" style="opacity: 0; stroke-width: 0px; fill: rgb(255, 127, 14); fill-opacity: 1;"/><path class="point" transform="translate(31.17,25.45)" d="M0.5,0A0.5,0.5 0 1,1 0,-0.5A0.5,0.5 0 0,1 0.5,0Z" style="opacity: 0; stroke-width: 0px; fill: rgb(255, 127, 14); fill-opacity: 1;"/></g><g class="text"/></g><g class="trace scatter trace3f6aae" style="stroke-miterlimit: 2; opacity: 1;"><g class="fills"/><g class="errorbars"/><g class="lines"/><g class="points"><path class="point" transform="translate(31.17,38.18)" d="M0.5,0A0.5,0.5 0 1,1 0,-0.5A0.5,0.5 0 0,1 0.5,0Z" style="opacity: 0; stroke-width: 0px; fill: rgb(31, 119, 180); fill-opacity: 1;"/><path class="point" transform="translate(55.88,38.18)" d="M0.5,0A0.5,0.5 0 1,1 0,-0.5A0.5,0.5 0 0,1 0.5,0Z" style="opacity: 0; stroke-width: 0px; fill: rgb(31, 119, 180); fill-opacity: 1;"/><path class="point" transform="translate(55.88,50.91)" d="M0.5,0A0.5,0.5 0 1,1 0,-0.5A0.5,0.5 0 0,1 0.5,0Z" style="opacity: 0; stroke-width: 0px; fill: rgb(31, 119, 180); fill-opacity: 1;"/><path class="point" transform="translate(77.8,50.91)" d="M0.5,0A0.5,0.5 0 1,1 0,-0.5A0.5,0.5 0 0,1 0.5,0Z" style="opacity: 0; stroke-width: 0px; fill: rgb(31, 119, 180); fill-opacity: 1;"/></g><g class="text"/></g><g class="trace scatter traceab1706" style="stroke-miterlimit: 2; opacity: 1;"><g class="fills"/><g class="errorbars"/><g class="lines"/><g class="points"><path class="point" transform="translate(208.05,203.64)" d="M0.5,0A0.5,0.5 0 1,1 0,-0.5A0.5,0.5 0 0,1 0.5,0Z" style="opacity: 0; stroke-width: 0px; fill: rgb(44, 160, 44); fill-opacity: 1;"/><path class="point" transform="translate(216.31,203.64)" d="M0.5,0A0.5,0.5 0 1,1 0,-0.5A0.5,0.5 0 0,1 0.5,0Z" style="opacity: 0; stroke-width: 0px; fill: rgb(44, 160, 44); fill-opacity: 1;"/><path class="point" transform="translate(216.31,216.36)" d="M0.5,0A0.5,0.5 0 1,1 0,-0.5A0.5,0.5 0 0,1 0.5,0Z" style="opacity: 0; stroke-width: 0px; fill: rgb(44, 160, 44); fill-opacity: 1;"/><path class="point" transform="translate(220.03,216.36)" d="M0.5,0A0.5,0.5 0 1,1 0,-0.5A0.5,0.5 0 0,1 0.5,0Z" style="opacity: 0; stroke-width: 0px; fill: rgb(44, 160, 44); fill-opacity: 1;"/><path class="point" transform="translate(220.03,229.09)" d="M0.5,0A0.5,0.5 0 1,1 0,-0.5A0.5,0.5 0 0,1 0.5,0Z" style="opacity: 0; stroke-width: 0px; fill: rgb(44, 160, 44); fill-opacity: 1;"/><path class="point" transform="translate(244.5,229.09)" d="M0.5,0A0.5,0.5 0 1,1 0,-0.5A0.5,0.5 0 0,1 0.5,0Z" style="opacity: 0; stroke-width: 0px; fill: rgb(44, 160, 44); fill-opacity: 1;"/><path class="point" transform="translate(244.5,241.82)" d="M0.5,0A0.5,0.5 0 1,1 0,-0.5A0.5,0.5 0 0,1 0.5,0Z" style="opacity: 0; stroke-width: 0px; fill: rgb(44, 160, 44); fill-opacity: 1;"/><path class="point" transform="translate(254.26,241.82)" d="M0.5,0A0.5,0.5 0 1,1 0,-0.5A0.5,0.5 0 0,1 0.5,0Z" style="opacity: 0; stroke-width: 0px; fill: rgb(44, 160, 44); fill-opacity: 1;"/></g><g class="text"/></g></g></g><g class="overplot"/><path class="xlines-above crisp" d="M0,0" style="fill: none;"/><path class="ylines-above crisp" d="M0,0" style="fill: none;"/><g class="overlines-above"/><g class="xaxislayer-above"><g class="xtick"><text text-anchor="middle" x="0" y="533" transform="translate(156.55,0)" style="font-family: 'Open Sans', verdana, arial, sans-serif; font-size: 12px; fill: rgb(42, 63, 95); fill-opacity: 1; white-space: pre;">00:00</text></g><g class="xtick"><text text-anchor="middle" x="0" y="533" transform="translate(258.41999999999996,0)" style="font-family: 'Open Sans', verdana, arial, sans-serif; font-size: 12px; fill: rgb(42, 63, 95); fill-opacity: 1; white-space: pre;">02:00</text></g><g class="xtick"><text text-anchor="middle" x="0" y="533" transform="translate(360.28999999999996,0)" style="font-family: 'Open Sans', verdana, arial, sans-serif; font-size: 12px; fill: rgb(42, 63, 95); fill-opacity: 1; white-space: pre;">04:00</text></g><g class="xtick"><text text-anchor="middle" x="0" y="533" transform="translate(462.16,0)" style="font-family: 'Open Sans', verdana, arial, sans-serif; font-size: 12px; fill: rgb(42, 63, 95); fill-opacity: 1; white-space: pre;">06:00</text></g><g class="xtick"><text text-anchor="middle" x="0" y="533" transform="translate(564.03,0)" style="font-family: 'Open Sans', verdana, arial, sans-serif; font-size: 12px; fill: rgb(42, 63, 95); fill-opacity: 1; white-space: pre;">08:00</text></g></g><g class="yaxislayer-above"><g class="ytick"><text text-anchor="end" x="128" y="4.199999999999999" transform="translate(0,507.27)" style="font-family: 'Open Sans', verdana, arial, sans-serif; font-size: 12px; fill: rgb(42, 63, 95); fill-opacity: 1; white-space: pre;">neutron.deploy</text></g><g class="ytick"><text text-anchor="end" x="128" y="4.199999999999999" transform="translate(0,494.55)" style="font-family: 'Open Sans', verdana, arial, sans-serif; font-size: 12px; fill: rgb(42, 63, 95); fill-opacity: 1; white-space: pre;">neutron.register</text></g><g class="ytick"><text text-anchor="end" x="128" y="4.199999999999999" transform="translate(0,481.82)" style="font-family: 'Open Sans', verdana, arial, sans-serif; font-size: 12px; fill: rgb(42, 63, 95); fill-opacity: 1; white-space: pre;">neutron.config</text></g><g class="ytick"><text text-anchor="end" x="128" y="4.199999999999999" transform="translate(0,469.09)" style="font-family: 'Open Sans', verdana, arial, sans-serif; font-size: 12px; fill: rgb(42, 63, 95); fill-opacity: 1; white-space: pre;">neutron.pull</text></g><g class="ytick"><text text-anchor="end" x="128" y="4.199999999999999" transform="translate(0,456.36)" style="font-family: 'Open Sans', verdana, arial, sans-serif; font-size: 12px; fill: rgb(42, 63, 95); fill-opacity: 1; white-space: pre;">openvswitch.deploy</text></g><g class="ytick"><text text-anchor="end" x="128" y="4.199999999999999" transform="translate(0,443.64)" style="font-family: 'Open Sans', verdana, arial, sans-serif; font-size: 12px; fill: rgb(42, 63, 95); fill-opacity: 1; white-space: pre;">nova.cell_setup</text></g><g class="ytick"><text text-anchor="end" x="128" y="4.199999999999999" transform="translate(0,430.91)" style="font-family: 'Open Sans', verdana, arial, sans-serif; font-size: 12px; fill: rgb(42, 63, 95); fill-opacity: 1; white-space: pre;">nova.restart</text></g><g class="ytick"><text text-anchor="end" x="128" y="4.199999999999999" transform="translate(0,418.18)" style="font-family: 'Open Sans', verdana, arial, sans-serif; font-size: 12px; fill: rgb(42, 63, 95); fill-opacity: 1; white-space: pre;">nova.upgrade_api_db</text></g><g class="ytick"><text text-anchor="end" x="128" y="4.199999999999999" transform="translate(0,405.45)" style="font-family: 'Open Sans', verdana, arial, sans-serif; font-size: 12px; fill: rgb(42, 63, 95); fill-opacity: 1; white-space: pre;">nova.upgrade_db</text></g><g class="ytick"><text text-anchor="end" x="128" y="4.199999999999999" transform="translate(0,392.73)" style="font-family: 'Open Sans', verdana, arial, sans-serif; font-size: 12px; fill: rgb(42, 63, 95); fill-opacity: 1; white-space: pre;">nova.create_db</text></g><g class="ytick"><text text-anchor="end" x="128" y="4.199999999999999" transform="translate(0,380)" style="font-family: 'Open Sans', verdana, arial, sans-serif; font-size: 12px; fill: rgb(42, 63, 95); fill-opacity: 1; white-space: pre;">nova.register</text></g><g class="ytick"><text text-anchor="end" x="128" y="4.199999999999999" transform="translate(0,367.27)" style="font-family: 'Open Sans', verdana, arial, sans-serif; font-size: 12px; fill: rgb(42, 63, 95); fill-opacity: 1; white-space: pre;">nova.config</text></g><g class="ytick"><text text-anchor="end" x="128" y="4.199999999999999" transform="translate(0,354.55)" style="font-family: 'Open Sans', verdana, arial, sans-serif; font-size: 12px; fill: rgb(42, 63, 95); fill-opacity: 1; white-space: pre;">nova.pull</text></g><g class="ytick"><text text-anchor="end" x="128" y="4.199999999999999" transform="translate(0,341.82)" style="font-family: 'Open Sans', verdana, arial, sans-serif; font-size: 12px; fill: rgb(42, 63, 95); fill-opacity: 1; white-space: pre;">glance.deploy</text></g><g class="ytick"><text text-anchor="end" x="128" y="4.199999999999999" transform="translate(0,329.09000000000003)" style="font-family: 'Open Sans', verdana, arial, sans-serif; font-size: 12px; fill: rgb(42, 63, 95); fill-opacity: 1; white-space: pre;">glance.register</text></g><g class="ytick"><text text-anchor="end" x="128" y="4.199999999999999" transform="translate(0,316.36)" style="font-family: 'Open Sans', verdana, arial, sans-serif; font-size: 12px; fill: rgb(42, 63, 95); fill-opacity: 1; white-space: pre;">glance.config</text></g><g class="ytick"><text text-anchor="end" x="128" y="4.199999999999999" transform="translate(0,303.64)" style="font-family: 'Open Sans', verdana, arial, sans-serif; font-size: 12px; fill: rgb(42, 63, 95); fill-opacity: 1; white-space: pre;">glance.pull</text></g><g class="ytick"><text text-anchor="end" x="128" y="4.199999999999999" transform="translate(0,290.90999999999997)" style="font-family: 'Open Sans', verdana, arial, sans-serif; font-size: 12px; fill: rgb(42, 63, 95); fill-opacity: 1; white-space: pre;">keystone.deploy</text></g><g class="ytick"><text text-anchor="end" x="128" y="4.199999999999999" transform="translate(0,278.18)" style="font-family: 'Open Sans', verdana, arial, sans-serif; font-size: 12px; fill: rgb(42, 63, 95); fill-opacity: 1; white-space: pre;">keystone.pull</text></g><g class="ytick"><text text-anchor="end" x="128" y="4.199999999999999" transform="translate(0,265.45)" style="font-family: 'Open Sans', verdana, arial, sans-serif; font-size: 12px; fill: rgb(42, 63, 95); fill-opacity: 1; white-space: pre;">rabbitmq.deploy</text></g><g class="ytick"><text text-anchor="end" x="128" y="4.199999999999999" transform="translate(0,252.73)" style="font-family: 'Open Sans', verdana, arial, sans-serif; font-size: 12px; fill: rgb(42, 63, 95); fill-opacity: 1; white-space: pre;">mariadb.check</text></g><g class="ytick"><text text-anchor="end" x="128" y="4.199999999999999" transform="translate(0,240)" style="font-family: 'Open Sans', verdana, arial, sans-serif; font-size: 12px; fill: rgb(42, 63, 95); fill-opacity: 1; white-space: pre;">mariadb.register</text></g><g class="ytick"><text text-anchor="end" x="128" y="4.199999999999999" transform="translate(0,227.26999999999998)" style="font-family: 'Open Sans', verdana, arial, sans-serif; font-size: 12px; fill: rgb(42, 63, 95); fill-opacity: 1; white-space: pre;">mariadb.restart</text></g><g class="ytick"><text text-anchor="end" x="128" y="4.199999999999999" transform="translate(0,214.55)" style="font-family: 'Open Sans', verdana, arial, sans-serif; font-size: 12px; fill: rgb(42, 63, 95); fill-opacity: 1; white-space: pre;">mariadb.bootstrap</text></g><g class="ytick"><text text-anchor="end" x="128" y="4.199999999999999" transform="translate(0,201.82)" style="font-family: 'Open Sans', verdana, arial, sans-serif; font-size: 12px; fill: rgb(42, 63, 95); fill-opacity: 1; white-space: pre;">mariadb.config</text></g><g class="ytick"><text text-anchor="end" x="128" y="4.199999999999999" transform="translate(0,189.09)" style="font-family: 'Open Sans', verdana, arial, sans-serif; font-size: 12px; fill: rgb(42, 63, 95); fill-opacity: 1; white-space: pre;">mariadb.pull</text></g><g class="ytick"><text text-anchor="end" x="128" y="4.199999999999999" transform="translate(0,176.36)" style="font-family: 'Open Sans', verdana, arial, sans-serif; font-size: 12px; fill: rgb(42, 63, 95); fill-opacity: 1; white-space: pre;">memcached.deploy</text></g><g class="ytick"><text text-anchor="end" x="128" y="4.199999999999999" transform="translate(0,163.64)" style="font-family: 'Open Sans', verdana, arial, sans-serif; font-size: 12px; fill: rgb(42, 63, 95); fill-opacity: 1; white-space: pre;">haproxy.deploy</text></g><g class="ytick"><text text-anchor="end" x="128" y="4.199999999999999" transform="translate(0,150.91)" style="font-family: 'Open Sans', verdana, arial, sans-serif; font-size: 12px; fill: rgb(42, 63, 95); fill-opacity: 1; white-space: pre;">common.deploy</text></g><g class="ytick"><text text-anchor="end" x="128" y="4.199999999999999" transform="translate(0,138.18)" style="font-family: 'Open Sans', verdana, arial, sans-serif; font-size: 12px; fill: rgb(42, 63, 95); fill-opacity: 1; white-space: pre;">common.ktb_deploy</text></g><g class="ytick"><text text-anchor="end" x="128" y="4.199999999999999" transform="translate(0,125.45)" style="font-family: 'Open Sans', verdana, arial, sans-serif; font-size: 12px; fill: rgb(42, 63, 95); fill-opacity: 1; white-space: pre;">facts.deploy</text></g></g><g class="overaxes-above"/></g></g><g class="polarlayer"/><g class="ternarylayer"/><g class="geolayer"/><g class="funnelarealayer"/><g class="pielayer"/><g class="sunburstlayer"/><g class="glimages"/><defs id="topdefs-0566d6"><g class="clips"/></defs><g class="layer-above"><g class="imagelayer"/><g class="shapelayer"/></g><g class="infolayer"><g class="g-gtitle"/><g class="g-xtitle"/><g class="g-ytitle"/></g></svg>