<svg class="main-svg" xmlns="http://www.w3.org/2000/svg" xmlns:xlink="http://www.w3.org/1999/xlink" width="700" height="600" viewBox="0 0 700 600"><rect x="0" y="0" width="700" height="600" style="fill: rgb(255, 255, 255); fill-opacity: 1;"/><defs id="defs-02b677"><g class="clips"><clipPath id="clip02b677xyplot" class="plotclip"><rect width="502" height="420"/></clipPath><clipPath class="axesclip" id="clip02b677x"><rect x="118" y="0" width="502" height="600"/></clipPath><clipPath class="axesclip" id="clip02b677y"><rect x="0" y="100" width="700" height="420"/></clipPath><clipPath class="axesclip" id="clip02b677xy"><rect x="118" y="100" width="502" height="420"/></clipPath></g><g class="gradients"/></defs><g class="bglayer"><rect class="bg" x="118" y="100" width="502" height="420" style="fill: rgb(229, 236, 246); fill-opacity: 1; stroke-width: 0;"/></g><g class="layer-below"><g class="imagelayer"/><g class="shapelayer"/></g><g class="cartesianlayer"><g class="subplot xy"><g class="layer-subplot"><g class="shapelayer"/><g class="imagelayer"/></g><g class="gridlayer"><g class="x"><path class="xgrid crisp" transform="translate(146.1,0)" d="M0,100v420" style="stroke: rgb(255, 255, 255); stroke-opacity: 1; stroke-width: 1px;"/><path class="xgrid crisp" transform="translate(241.3,0)" d="M0,100v420" style="stroke: rgb(255, 255, 255); stroke-opacity: 1; stroke-width: 1px;"/><path class="xgrid crisp" transform="translate(336.5,0)" d="M0,100v420" style="stroke: rgb(255, 255, 255); stroke-opacity: 1; stroke-width: 1px;"/><path class="xgrid crisp" transform="translate(431.7,0)" d="M0,100v420" style="stroke: rgb(255, 255, 255); stroke-opacity: 1; stroke-width: 1px;"/><path class="xgrid crisp" transform="translate(526.9,0)" d="M0,100v420" style="stroke: rgb(255, 255, 255); stroke-opacity: 1; stroke-width: 1px;"/></g><g class="y"><path class="ygrid crisp" transform="translate(0,496.67)" d="M118,0h502" style="stroke: rgb(255, 255, 255); stroke-opacity: 1; stroke-width: 1px;"/><path class="ygrid crisp" transform="translate(0,473.33)" d="M118,0h502" style="stroke: rgb(255, 255, 255); stroke-opacity: 1; stroke-width: 1px;"/><path class="ygrid crisp" transform="translate(0,450)" d="M118,0h502" style="stroke: rgb(255, 255, 255); stroke-opacity: 1; stroke-width: 1px;"/><path class="ygrid crisp" transform="translate(0,426.67)" d="M118,0h502" style="stroke: rgb(255, 255, 255); stroke-opacity: 1; stroke-width: 1px;"/><path class="ygrid crisp" transform="translate(0,403.33)" d="M118,0h502" style="stroke: rgb(255, 255, 255); stroke-opacity: 1; stroke-width: 1px;"/><path class="ygrid crisp" transform="translate(0,380)" d="M118,0h502" style="stroke: rgb(255, 255, 255); stroke-opacity: 1; stroke-width: 1px;"/><path class="ygrid crisp" transform="translate(0,356.67)" d="M118,0h502" style="stroke: rgb(255, 255, 255); stroke-opacity: 1; stroke-width: 1px;"/><path class="ygrid crisp" transform="translate(0,333.33000000000004)" d="M118,0h502" style="stroke: rgb(255, 255, 255); stroke-opacity: 1; stroke-width: 1px;"/><path class="ygrid crisp" transform="translate(0,310)" d="M118,0h502" style="stroke: rgb(255, 255, 255); stroke-opacity: 1; stroke-width: 1px;"/><path class="ygrid crisp" transform="translate(0,286.66999999999996)" d="M118,0h502" style="stroke: rgb(255, 255, 255); stroke-opacity: 1; stroke-width: 1px;"/><path class="ygrid crisp" transform="translate(0,263.33000000000004)" d="M118,0h502" style="stroke: rgb(255, 255, 255); stroke-opacity: 1; stroke-width: 1px;"/><path class="ygrid crisp" transform="translate(0,240)" d="M118,0h502" style="stroke: rgb(255, 255, 255); stroke-opacity: 1; stroke-width: 1px;"/><path class="ygrid crisp" transform="translate(0,216.67000000000002)" d="M118,0h502" style="stroke: rgb(255, 255, 255); stroke-opacity: 1; stroke-width: 1px;"/><path class="ygrid crisp" transform="translate(0,193.32999999999998)" d="M118,0h502" style="stroke: rgb(255, 255, 255); stroke-opacity: 1; stroke-width: 1px;"/><path class="ygrid crisp" transform="translate(0,170)" d="M118,0h502" style="stroke: rgb(255, 255, 255); stroke-opacity: 1; stroke-width: 1px;"/><path class="ygrid crisp" transform="translate(0,146.67000000000002)" d="M118,0h502" style="stroke: rgb(255, 255, 255); stroke-opacity: 1; stroke-width: 1px;"/></g></g><g class="zerolinelayer"/><path class="xlines-below"/><path class="ylines-below"/><g class="overlines-below"/><g class="xaxislayer-below"/><g class="yaxislayer-below"/><g class="overaxes-below"/><g class="plot" transform="translate(118, 100)" clip-path="url('#clip02b677xyplot')"><g class="scatterlayer mlayer"><g class="trace scatter trace119368" style="stroke-miterlimit: 2; opacity: 1;"><g class="fills"><g><path class="js-fill" d="M28.1,214.67L88.35,214.67L88.35,205.33L28.1,205.33ZM295.68,238L372.37,238L372.37,228.67L295.68,228.67Z" style="fill: rgb(127, 127, 127); fill-opacity: 1; stroke-width: 0;"/></g></g><g class="errorbars"/><g class="lines"/><g class="points"/><g class="text"/></g><g class="trace scatter trace4270c6" style="stroke-miterlimit: 2; opacity: 1;"><g class="fills"><g><path class="js-fill" d="M28.1,74.67L67.34,74.67L67.34,65.33L28.1,65.33ZM140.76,98L241.68,98L241.68,88.67L140.76,88.67Z" style="fill: rgb(140, 86, 75); fill-opacity: 1; stroke-width: 0;"/></g></g><g class="errorbars"/><g class="lines"/><g class="points"/><g class="text"/></g><g class="trace scatter trace3f949d" style="stroke-miterlimit: 2; opacity: 1;"><g class="fills"><g><path class="js-fill" d="M28.1,121.33L82.97,121.33L82.97,112L28.1,112ZM241.68,144.67L295.68,144.67L295.68,135.33L241.68,135.33Z" style="fill: rgb(148, 103, 189); fill-opacity: 1; stroke-width: 0;"/></g></g><g class="errorbars"/><g class="lines"/><g class="points"/><g class="text"/></g><g class="trace scatter trace05b1f3" style="stroke-miterlimit: 2; opacity: 1;"><g class="fills"><g><path class="js-fill" d="M28.1,261.33L108.48,261.33L108.48,252L28.1,252ZM295.68,284.67L473.9,284.67L473.9,275.33L295.68,275.33Z" style="fill: rgb(188, 189, 34); fill-opacity: 1; stroke-width: 0;"/></g></g><g class="errorbars"/><g class="lines"/><g class="points"/><g class="text"/></g><g class="trace scatter trace070cc9" style="stroke-miterlimit: 2; opacity: 1;"><g class="fills"><g><path class="js-fill" d="M38.39,331.33L64.27,331.33L64.27,322L38.39,322Z" style="fill: rgb(204, 12, 56); fill-opacity: 1; stroke-width: 0;"/></g></g><g class="errorbars"/><g class="lines"/><g class="points"/><g class="text"/></g><g class="trace scatter trace2c309c" style="stroke-miterlimit: 2; opacity: 1;"><g class="fills"><g><path class="js-fill" d="M38.39,378L78.74,378L78.74,368.67L38.39,368.67Z" style="fill: rgb(214, 39, 40); fill-opacity: 1; stroke-width: 0;"/></g></g><g class="errorbars"/><g class="lines"/><g class="points"/><g class="text"/></g><g class="trace scatter trace40534f" style="stroke-miterlimit: 2; opacity: 1;"><g class="fills"><g><path class="js-fill" d="M38.39,308L61.26,308L61.26,298.67L38.39,298.67Z" style="fill: rgb(227, 119, 194); fill-opacity: 1; stroke-width: 0;"/></g></g><g class="errorbars"/><g class="lines"/><g class="points"/><g class="text"/></g><g class="trace scatter tracea14c1c" style="stroke-miterlimit: 2; opacity: 1;"><g class="fills"><g><path class="js-fill" d="M38.39,354.67L66.9,354.67L66.9,345.33L38.39,345.33Z" style="fill: rgb(23, 190, 207); fill-opacity: 1; stroke-width: 0;"/></g></g><g class="errorbars"/><g class="lines"/><g class="points"/><g class="text"/></g><g class="trace scatter tracec7a4b8" style="stroke-miterlimit: 2; opacity: 1;"><g class="fills"><g><path class="js-fill" d="M28.1,51.33L38.39,51.33L38.39,42L28.1,42Z" style="fill: rgb(255, 127, 14); fill-opacity: 1; stroke-width: 0;"/></g></g><g class="errorbars"/><g class="lines"/><g class="points"/><g class="text"/></g><g class="trace scatter trace73cf87" style="stroke-miterlimit: 2; opacity: 1;"><g class="fills"><g><path class="js-fill" d="M38.39,401.33L140.76,401.33L140.76,392L38.39,392Z" style="fill: rgb(31, 119, 180); fill-opacity: 1; stroke-width: 0;"/></g></g><g class="errorbars"/><g class="lines"/><g class="points"/><g class="text"/></g><g class="trace scatter trace59420e" style="stroke-miterlimit: 2; opacity: 1;"><g class="fills"><g><path class="js-fill" d="M28.1,168L85.49,168L85.49,158.67L28.1,158.67ZM295.68,191.33L347.35,191.33L347.35,182L295.68,182Z" style="fill: rgb(44, 160, 44); fill-opacity: 1; stroke-width: 0;"/></g></g><g class="errorbars"/><g class="lines"/><g class="points"/><g class="text"/></g><g class="trace scatter tracea0e14d" style="stroke-miterlimit: 2; opacity: 1;"><g class="fills"/><g class="errorbars"/><g class="lines"/><g class="points"><path class="point" transform="translate(28.1,210)" d="M0.5,0A0.5,0.5 0 1,1 0,-0.5A0.5,0.5 0 0,1 0.5,0Z" style="opacity: 0; stroke-width: 0px; fill: rgb(127, 127, 127); fill-opacity: 1;"/><path class="point" transform="translate(88.35,210)" d="M0.5,0A0.5,0.5 0 1,1 0,-0.5A0.5,0.5 0 0,1 0.5,0Z" style="opacity: 0; stroke-width: 0px; fill: rgb(127, 127, 127); fill-opacity: 1;"/><path class="point" transform="translate(295.68,233.33)" d="M0.5,0A0.5,0.5 0 1,1 0,-0.5A0.5,0.5 0 0,1 0.5,0Z" style="opacity: 0; stroke-width: 0px; fill: rgb(127, 127, 127); fill-opacity: 1;"/><path class="point" transform="translate(372.37,233.33)" d="M0.5,0A0.5,0.5 0 1,1 0,-0.5A0.5,0.5 0 0,1 0.5,0Z" style="opacity: 0; stroke-width: 0px; fill: rgb(127, 127, 127); fill-opacity: 1;"/></g><g class="text"/></g><g class="trace scatter trace4198e7" style="stroke-miterlimit: 2; opacity: 1;"><g class="fills"/><g class="errorbars"/><g class="lines"/><g class="points"><path class="point" transform="translate(28.1,70)" d="M0.5,0A0.5,0.5 0 1,1 0,-0.5A0.5,0.5 0 0,1 0.5,0Z" style="opacity: 0; stroke-width: 0px; fill: rgb(140, 86, 75); fill-opacity: 1;"/><path class="point" transform="translate(67.34,70)" d="M0.5,0A0.5,0.5 0 1,1 0,-0.5A0.5,0.5 0 0,1 0.5,0Z" style="opacity: 0; stroke-width: 0px; fill: rgb(140, 86, 75); fill-opacity: 1;"/><path class="point" transform="translate(140.76,93.33)" d="M0.5,0A0.5,0.5 0 1,1 0,-0.5A0.5,0.5 0 0,1 0.5,0Z" style="opacity: 0; stroke-width: 0px; fill: rgb(140, 86, 75); fill-opacity: 1;"/><path class="point" transform="translate(241.68,93.33)" d="M0.5,0A0.5,0.5 0 1,1 0,-0.5A0.5,0.5 0 0,1 0.5,0Z" style="opacity: 0; stroke-width: 0px; fill: rgb(140, 86, 75); fill-opacity: 1;"/></g><g class="text"/></g><g class="trace scatter trace6fac9c" style="stroke-miterlimit: 2; opacity: 1;"><g class="fills"/><g class="errorbars"/><g class="lines"/><g class="points"><path class="point" transform="translate(28.1,116.67)" d="M0.5,0A0.5,0.5 0 1,1 0,-0.5A0.5,0.5 0 0,1 0.5,0Z" style="opacity: 0; stroke-width: 0px; fill: rgb(148, 103, 189); fill-opacity: 1;"/><path class="point" transform="translate(82.97,116.67)" d="M0.5,0A0.5,0.5 0 1,1 0,-0.5A0.5,0.5 0 0,1 0.5,0Z" style="opacity: 0; stroke-width: 0px; fill: rgb(148, 103, 189); fill-opacity: 1;"/><path class="point" transform="translate(241.68,140)" d="M0.5,0A0.5,0.5 0 1,1 0,-0.5A0.5,0.5 0 0,1 0.5,0Z" style="opacity: 0; stroke-width: 0px; fill: rgb(148, 103, 189); fill-opacity: 1;"/><path class="point" transform="translate(295.68,140)" d="M0.5,0A0.5,0.5 0 1,1 0,-0.5A0.5,0.5 0 0,1 0.5,0Z" style="opacity: 0; stroke-width: 0px; fill: rgb(148, 103, 189); fill-opacity: 1;"/></g><g class="text"/></g><g class="trace scatter traceb7e25f" style="stroke-miterlimit: 2; opacity: 1;"><g class="fills"/><g class="errorbars"/><g class="lines"/><g class="points"><path class="point" transform="translate(28.1,256.67)" d="M0.5,0A0.5,0.5 0 1,1 0,-0.5A0.5,0.5 0 0,1 0.5,0Z" style="opacity: 0; stroke-width: 0px; fill: rgb(188, 189, 34); fill-opacity: 1;"/><path class="point" transform="translate(108.48,256.67)" d="M0.5,0A0.5,0.5 0 1,1 0,-0.5A0.5,0.5 0 0,1 0.5,0Z" style="opacity: 0; stroke-width: 0px; fill: rgb(188, 189, 34); fill-opacity: 1;"/><path class="point" transform="translate(295.68,280)" d="M0.5,0A0.5,0.5 0 1,1 0,-0.5A0.5,0.5 0 0,1 0.5,0Z" style="opacity: 0; stroke-width: 0px; fill: rgb(188, 189, 34); fill-opacity: 1;"/><path class="point" transform="translate(473.9,280)" d="M0.5,0A0.5,0.5 0 1,1 0,-0.5A0.5,0.5 0 0,1 0.5,0Z" style="opacity: 0; stroke-width: 0px; fill: rgb(188, 189, 34); fill-opacity: 1;"/></g><g class="text"/></g><g class="trace scatter trace41a6e4" style="stroke-miterlimit: 2; opacity: 1;"><g class="fills"/><g class="errorbars"/><g class="lines"/><g class="points"><path class="point" transform="translate(38.39,326.67)" d="M0.5,0A0.5,0.5 0 1,1 0,-0.5A0.5,0.5 0 0,1 0.5,0Z" style="opacity: 0; stroke-width: 0px; fill: rgb(204, 12, 56); fill-opacity: 1;"/><path class="point" transform="translate(64.27,326.67)" d="M0.5,0A0.5,0.5 0 1,1 0,-0.5A0.5,0.5 0 0,1 0.5,0Z" style="opacity: 0; stroke-width: 0px; fill: rgb(204, 12, 56); fill-opacity: 1;"/></g><g class="text"/></g><g class="trace scatter tracec3a5a6" style="stroke-miterlimit: 2; opacity: 1;"><g class="fills"/><g class="errorbars"/><g class="lines"/><g class="points"><path class="point" transform="translate(38.39,373.33)" d="M0.5,0A0.5,0.5 0 1,1 0,-0.5A0.5,0.5 0 0,1 0.5,0Z" style="opacity: 0; stroke-width: 0px; fill: rgb(214, 39, 40); fill-opacity: 1;"/><path class="point" transform="translate(78.74,373.33)" d="M0.5,0A0.5,0.5 0 1,1 0,-0.5A0.5,0.5 0 0,1 0.5,0Z" style="opacity: 0; stroke-width: 0px; fill: rgb(214, 39, 40); fill-opacity: 1;"/></g><g class="text"/></g><g class="trace scatter trace3c5b5f" style="stroke-miterlimit: 2; opacity: 1;"><g class="fills"/><g class="errorbars"/><g class="lines"/><g class="points"><path class="point" transform="translate(38.39,303.33)" d="M0.5,0A0.5,0.5 0 1,1 0,-0.5A0.5,0.5 0 0,1 0.5,0Z" style="opacity: 0; stroke-width: 0px; fill: rgb(227, 119, 194); fill-opacity: 1;"/><path class="point" transform="translate(61.26,303.33)" d="M0.5,0A0.5,0.5 0 1,1 0,-0.5A0.5,0.5 0 0,1 0.5,0Z" style="opacity: 0; stroke-width: 0px; fill: rgb(227, 119, 194); fill-opacity: 1;"/></g><g class="text"/></g><g class="trace scatter trace10013b" style="stroke-miterlimit: 2; opacity: 1;"><g class="fills"/><g class="errorbars"/><g class="lines"/><g class="points"><path class="point" transform="translate(38.39,350)" d="M0.5,0A0.5,0.5 0 1,1 0,-0.5A0.5,0.5 0 0,1 0.5,0Z" style="opacity: 0; stroke-width: 0px; fill: rgb(23, 190, 207); fill-opacity: 1;"/><path class="point" transform="translate(66.9,350)" d="M0.5,0A0.5,0.5 0 1,1 0,-0.5A0.5,0.5 0 0,1 0.5,0Z" style="opacity: 0; stroke-width: 0px; fill: rgb(23, 190, 207); fill-opacity: 1;"/></g><g class="text"/></g><g class="trace scatter trace02f17a" style="stroke-miterlimit: 2; opacity: 1;"><g class="fills"/><g class="errorbars"/><g class="lines"/><g class="points"><path class="point" transform="translate(28.1,46.67)" d="M0.5,0A0.5,0.5 0 1,1 0,-0.5A0.5,0.5 0 0,1 0.5,0Z" style="opacity: 0; stroke-width: 0px; fill: rgb(255, 127, 14); fill-opacity: 1;"/><path class="point" transform="translate(38.39,46.67)" d="M0.5,0A0.5,0.5 0 1,1 0,-0.5A0.5,0.5 0 0,1 0.5,0Z" style="opacity: 0; stroke-width: 0px; fill: rgb(255, 127, 14); fill-opacity: 1;"/></g><g class="text"/></g><g class="trace scatter tracef146e7" style="stroke-miterlimit: 2; opacity: 1;"><g class="fills"/><g class="errorbars"/><g class="lines"/><g class="points"><path class="point" transform="translate(38.39,396.67)" d="M0.5,0A0.5,0.5 0 1,1 0,-0.5A0.5,0.5 0 0,1 0.5,0Z" style="opacity: 0; stroke-width: 0px; fill: rgb(31, 119, 180); fill-opacity: 1;"/><path class="point" transform="translate(140.76,396.67)" d="M0.5,0A0.5,0.5 0 1,1 0,-0.5A0.5,0.5 0 0,1 0.5,0Z" style="opacity: 0; stroke-width: 0px; fill: rgb(31, 119, 180); fill-opacity: 1;"/></g><g class="text"/></g><g class="trace scatter trace3bb58d" style="stroke-miterlimit: 2; opacity: 1;"><g class="fills"/><g class="errorbars"/><g class="lines"/><g class="points"><path class="point" transform="translate(28.1,163.33)" d="M0.5,0A0.5,0.5 0 1,1 0,-0.5A0.5,0.5 0 0,1 0.5,0Z" style="opacity: 0; stroke-width: 0px; fill: rgb(44, 160, 44); fill-opacity: 1;"/><path class="point" transform="translate(85.49,163.33)" d="M0.5,0A0.5,0.5 0 1,1 0,-0.5A0.5,0.5 0 0,1 0.5,0Z" style="opacity: 0; stroke-width: 0px; fill: rgb(44, 160, 44); fill-opacity: 1;"/><path class="point" transform="translate(295.68,186.67)" d="M0.5,0A0.5,0.5 0 1,1 0,-0.5A0.5,0.5 0 0,1 0.5,0Z" style="opacity: 0; stroke-width: 0px; fill: rgb(44, 160, 44); fill-opacity: 1;"/><path class="point" transform="translate(347.35,186.67)" d="M0.5,0A0.5,0.5 0 1,1 0,-0.5A0.5,0.5 0 0,1 0.5,0Z" style="opacity: 0; stroke-width: 0px; fill: rgb(44, 160, 44); fill-opacity: 1;"/></g><g class="text"/></g></g></g><g class="overplot"/><path class="xlines-above crisp" d="M0,0" style="fill: none;"/><path class="ylines-above crisp" d="M0,0" style="fill: none;"/><g class="overlines-above"/><g class="xaxislayer-above"><g class="xtick"><text text-anchor="middle" x="0" y="533" transform="translate(146.1,0)" style="font-family: 'Open Sans', verdana, arial, sans-serif; font-size: 12px; fill: rgb(42, 63, 95); fill-opacity: 1; white-space: pre;">00:00</text></g><g class="xtick"><text text-anchor="middle" x="0" y="533" transform="translate(241.3,0)" style="font-family: 'Open Sans', verdana, arial, sans-serif; font-size: 12px; fill: rgb(42, 63, 95); fill-opacity: 1; white-space: pre;">01:00</text></g><g class="xtick"><text text-anchor="middle" x="0" y="533" transform="translate(336.5,0)" style="font-family: 'Open Sans', verdana, arial, sans-serif; font-size: 12px; fill: rgb(42, 63, 95); fill-opacity: 1; white-space: pre;">02:00</text></g><g class="xtick"><text text-anchor="middle" x="0" y="533" transform="translate(431.7,0)" style="font-family: 'Open Sans', verdana, arial, sans-serif; font-size: 12px; fill: rgb(42, 63, 95); fill-opacity: 1; white-space: pre;">03:00</text></g><g class="xtick"><text text-anchor="middle" x="0" y="533" transform="translate(526.9,0)" style="font-family: 'Open Sans', verdana, arial, sans-serif; font-size: 12px; fill: rgb(42, 63, 95); fill-opacity: 1; white-space: pre;">04:00</text></g></g><g class="yaxislayer-above"><g class="ytick"><text text-anchor="end" x="117" y="4.199999999999999" transform="translate(0,496.67)" style="font-family: 'Open Sans', verdana, arial, sans-serif; font-size: 12px; fill: rgb(42, 63, 95); fill-opacity: 1; white-space: pre;">common.deploy</text></g><g class="ytick"><text text-anchor="end" x="117" y="4.199999999999999" transform="translate(0,473.33)" style="font-family: 'Open Sans', verdana, arial, sans-serif; font-size: 12px; fill: rgb(42, 63, 95); fill-opacity: 1; white-space: pre;">haproxy.deploy</text></g><g class="ytick"><text text-anchor="end" x="117" y="4.199999999999999" transform="translate(0,450)" style="font-family: 'Open Sans', verdana, arial, sans-serif; font-size: 12px; fill: rgb(42, 63, 95); fill-opacity: 1; white-space: pre;">openvswitch.deploy</text></g><g class="ytick"><text text-anchor="end" x="117" y="4.199999999999999" transform="translate(0,426.67)" style="font-family: 'Open Sans', verdana, arial, sans-serif; font-size: 12px; fill: rgb(42, 63, 95); fill-opacity: 1; white-space: pre;">rabbitmq.deploy</text></g><g class="ytick"><text text-anchor="end" x="117" y="4.199999999999999" transform="translate(0,403.33)" style="font-family: 'Open Sans', verdana, arial, sans-serif; font-size: 12px; fill: rgb(42, 63, 95); fill-opacity: 1; white-space: pre;">memcached.deploy</text></g><g class="ytick"><text text-anchor="end" x="117" y="4.199999999999999" transform="translate(0,380)" style="font-family: 'Open Sans', verdana, arial, sans-serif; font-size: 12px; fill: rgb(42, 63, 95); fill-opacity: 1; white-space: pre;">nova.deploy</text></g><g class="ytick"><text text-anchor="end" x="117" y="4.199999999999999" transform="translate(0,356.67)" style="font-family: 'Open Sans', verdana, arial, sans-serif; font-size: 12px; fill: rgb(42, 63, 95); fill-opacity: 1; white-space: pre;">nova.pull</text></g><g class="ytick"><text text-anchor="end" x="117" y="4.199999999999999" transform="translate(0,333.33000000000004)" style="font-family: 'Open Sans', verdana, arial, sans-serif; font-size: 12px; fill: rgb(42, 63, 95); fill-opacity: 1; white-space: pre;">neutron.deploy</text></g><g class="ytick"><text text-anchor="end" x="117" y="4.199999999999999" transform="translate(0,310)" style="font-family: 'Open Sans', verdana, arial, sans-serif; font-size: 12px; fill: rgb(42, 63, 95); fill-opacity: 1; white-space: pre;">neutron.pull</text></g><g class="ytick"><text text-anchor="end" x="117" y="4.199999999999999" transform="translate(0,286.66999999999996)" style="font-family: 'Open Sans', verdana, arial, sans-serif; font-size: 12px; fill: rgb(42, 63, 95); fill-opacity: 1; white-space: pre;">glance.deploy</text></g><g class="ytick"><text text-anchor="end" x="117" y="4.199999999999999" transform="translate(0,263.33000000000004)" style="font-family: 'Open Sans', verdana, arial, sans-serif; font-size: 12px; fill: rgb(42, 63, 95); fill-opacity: 1; white-space: pre;">glance.pull</text></g><g class="ytick"><text text-anchor="end" x="117" y="4.199999999999999" transform="translate(0,240)" style="font-family: 'Open Sans', verdana, arial, sans-serif; font-size: 12px; fill: rgb(42, 63, 95); fill-opacity: 1; white-space: pre;">keystone.deploy</text></g><g class="ytick"><text text-anchor="end" x="117" y="4.199999999999999" transform="translate(0,216.67000000000002)" style="font-family: 'Open Sans', verdana, arial, sans-serif; font-size: 12px; fill: rgb(42, 63, 95); fill-opacity: 1; white-space: pre;">keystone.pull</text></g><g class="ytick"><text text-anchor="end" x="117" y="4.199999999999999" transform="translate(0,193.32999999999998)" style="font-family: 'Open Sans', verdana, arial, sans-serif; font-size: 12px; fill: rgb(42, 63, 95); fill-opacity: 1; white-space: pre;">mariadb.deploy</text></g><g class="ytick"><text text-anchor="end" x="117" y="4.199999999999999" transform="translate(0,170)" style="font-family: 'Open Sans', verdana, arial, sans-serif; font-size: 12px; fill: rgb(42, 63, 95); fill-opacity: 1; white-space: pre;">mariadb.pull</text></g><g class="ytick"><text text-anchor="end" x="117" y="4.199999999999999" transform="translate(0,146.67000000000002)" style="font-family: 'Open Sans', verdana, arial, sans-serif; font-size: 12px; fill: rgb(42, 63, 95); fill-opacity: 1; white-space: pre;">facts.deploy</text></g></g><g class="overaxes-above"/></g></g><g class="polarlayer"/><g class="ternarylayer"/><g class="geolayer"/><g class="funnelarealayer"/><g class="pielayer"/><g class="sunburstlayer"/><g class="glimages"/><defs id="topdefs-02b677"><g class="clips"/></defs><g class="layer-above"><g class="imagelayer"/><g class="shapelayer"/></g><g class="infolayer"><g class="g-gtitle"/><g class="g-xtitle"/><g class="g-ytitle"/></g></svg>