<svg class="main-svg" xmlns="http://www.w3.org/2000/svg" xmlns:xlink="http://www.w3.org/1999/xlink" width="700" height="600" viewBox="0 0 700 600"><rect x="0" y="0" width="700" height="600" style="fill: rgb(255, 255, 255); fill-opacity: 1;"/><defs id="defs-802055"><g class="clips"><clipPath id="clip802055xyplot" class="plotclip"><rect width="502" height="420"/></clipPath><clipPath class="axesclip" id="clip802055x"><rect x="118" y="0" width="502" height="600"/></clipPath><clipPath class="axesclip" id="clip802055y"><rect x="0" y="100" width="700" height="420"/></clipPath><clipPath class="axesclip" id="clip802055xy"><rect x="118" y="100" width="502" height="420"/></clipPath></g><g class="gradients"/></defs><g class="bglayer"><rect class="bg" x="118" y="100" width="502" height="420" style="fill: rgb(229, 236, 246); fill-opacity: 1; stroke-width: 0;"/></g><g class="layer-below"><g class="imagelayer"/><g class="shapelayer"/></g><g class="cartesianlayer"><g class="subplot xy"><g class="layer-subplot"><g class="shapelayer"/><g class="imagelayer"/></g><g class="gridlayer"><g class="x"><path class="xgrid crisp" transform="translate(146.1,0)" d="M0,100v420" style="stroke: rgb(255, 255, 255); stroke-opacity: 1; stroke-width: 1px;"/><path class="xgrid crisp" transform="translate(226.76999999999998,0)" d="M0,100v420" style="stroke: rgb(255, 255, 255); stroke-opacity: 1; stroke-width: 1px;"/><path class="xgrid crisp" transform="translate(307.43,0)" d="M0,100v420" style="stroke: rgb(255, 255, 255); stroke-opacity: 1; stroke-width: 1px;"/><path class="xgrid crisp" transform="translate(388.1,0)" d="M0,100v420" style="stroke: rgb(255, 255, 255); stroke-opacity: 1; stroke-width: 1px;"/><path class="xgrid crisp" transform="translate(468.77,0)" d="M0,100v420" style="stroke: rgb(255, 255, 255); stroke-opacity: 1; stroke-width: 1px;"/><path class="xgrid crisp" transform="translate(549.44,0)" d="M0,100v420" style="stroke: rgb(255, 255, 255); stroke-opacity: 1; stroke-width: 1px;"/></g><g class="y"><path class="ygrid crisp" transform="translate(0,487.69)" d="M118,0h502" style="stroke: rgb(255, 255, 255); stroke-opacity: 1; stroke-width: 1px;"/><path class="ygrid crisp" transform="translate(0,455.38)" d="M118,0h502" style="stroke: rgb(255, 255, 255); stroke-opacity: 1; stroke-width: 1px;"/><path class="ygrid crisp" transform="translate(0,423.08)" d="M118,0h502" style="stroke: rgb(255, 255, 255); stroke-opacity: 1; stroke-width: 1px;"/><path class="ygrid crisp" transform="translate(0,390.77)" d="M118,0h502" style="stroke: rgb(255, 255, 255); stroke-opacity: 1; stroke-width: 1px;"/><path class="ygrid crisp" transform="translate(0,358.46)" d="M118,0h502" style="stroke: rgb(255, 255, 255); stroke-opacity: 1; stroke-width: 1px;"/><path class="ygrid crisp" transform="translate(0,326.15)" d="M118,0h502" style="stroke: rgb(255, 255, 255); stroke-opacity: 1; stroke-width: 1px;"/><path class="ygrid crisp" transform="translate(0,293.85)" d="M118,0h502" style="stroke: rgb(255, 255, 255); stroke-opacity: 1; stroke-width: 1px;"/><path class="ygrid crisp" transform="translate(0,261.53999999999996)" d="M118,0h502" style="stroke: rgb(255, 255, 255); stroke-opacity: 1; stroke-width: 1px;"/><path class="ygrid crisp" transform="translate(0,229.23)" d="M118,0h502" style="stroke: rgb(255, 255, 255); stroke-opacity: 1; stroke-width: 1px;"/><path class="ygrid crisp" transform="translate(0,196.92000000000002)" d="M118,0h502" style="stroke: rgb(255, 255, 255); stroke-opacity: 1; stroke-width: 1px;"/><path class="ygrid crisp" transform="translate(0,164.62)" d="M118,0h502" style="stroke: rgb(255, 255, 255); stroke-opacity: 1; stroke-width: 1px;"/></g></g><g class="zerolinelayer"/><path class="xlines-below"/><path class="ylines-below"/><g class="overlines-below"/><g class="xaxislayer-below"/><g class="yaxislayer-below"/><g class="overaxes-below"/><g class="plot" transform="translate(118, 100)" clip-path="url('#clip802055xyplot')"><g class="scatterlayer mlayer"><g class="trace scatter traceee4da3" style="stroke-miterlimit: 2; opacity: 1;"><g class="fills"><g><path class="js-fill" d="M421.51,394.15L473.9,394.15L473.9,381.23L421.51,381.23Z" style="fill: rgb(127, 127, 127); fill-opacity: 1; stroke-width: 0;"/></g></g><g class="errorbars"/><g class="lines"/><g class="points"/><g class="text"/></g><g class="trace scatter trace54b7bc" style="stroke-miterlimit: 2; opacity: 1;"><g class="fills"><g><path class="js-fill" d="M79.61,200.31L165.04,200.31L165.04,187.38L79.61,187.38Z" style="fill: rgb(140, 86, 75); fill-opacity: 1; stroke-width: 0;"/></g></g><g class="errorbars"/><g class="lines"/><g class="points"/><g class="text"/></g><g class="trace scatter trace87f8bd" style="stroke-miterlimit: 2; opacity: 1;"><g class="fills"><g><path class="js-fill" d="M173.18,264.92L217.55,264.92L217.55,252L173.18,252Z" style="fill: rgb(148, 103, 189); fill-opacity: 1; stroke-width: 0;"/></g></g><g class="errorbars"/><g class="lines"/><g class="points"/><g class="text"/></g><g class="trace scatter tracead261e" style="stroke-miterlimit: 2; opacity: 1;"><g class="fills"><g><path class="js-fill" d="M272.75,329.54L412,329.54L412,316.62L272.75,316.62Z" style="fill: rgb(188, 189, 34); fill-opacity: 1; stroke-width: 0;"/></g></g><g class="errorbars"/><g class="lines"/><g class="points"/><g class="text"/></g><g class="trace scatter trace04ba92" style="stroke-miterlimit: 2; opacity: 1;"><g class="fills"><g><path class="js-fill" d="M55.25,135.69L75.06,135.69L75.06,122.77L55.25,122.77Z" style="fill: rgb(214, 39, 40); fill-opacity: 1; stroke-width: 0;"/></g></g><g class="errorbars"/><g class="lines"/><g class="points"/><g class="text"/></g><g class="trace scatter trace9cb330" style="stroke-miterlimit: 2; opacity: 1;"><g class="fills"><g><path class="js-fill" d="M75.06,168L79.61,168L79.61,155.08L75.06,155.08Z" style="fill: rgb(227, 119, 194); fill-opacity: 1; stroke-width: 0;"/></g></g><g class="errorbars"/><g class="lines"/><g class="points"/><g class="text"/></g><g class="trace scatter trace888f45" style="stroke-miterlimit: 2; opacity: 1;"><g class="fills"><g><path class="js-fill" d="M412,361.85L421.51,361.85L421.51,348.92L412,348.92Z" style="fill: rgb(23, 190, 207); fill-opacity: 1; stroke-width: 0;"/></g></g><g class="errorbars"/><g class="lines"/><g class="points"/><g class="text"/></g><g class="trace scatter tracedc872e" style="stroke-miterlimit: 2; opacity: 1;"><g class="fills"><g><path class="js-fill" d="M28.1,71.08L34.09,71.08L34.09,58.15L28.1,58.15Z" style="fill: rgb(255, 127, 14); fill-opacity: 1; stroke-width: 0;"/></g></g><g class="errorbars"/><g class="lines"/><g class="points"/><g class="text"/></g><g class="trace scatter tracef87e40" style="stroke-miterlimit: 2; opacity: 1;"><g class="fills"><g><path class="js-fill" d="M34.09,103.38L55.25,103.38L55.25,90.46L34.09,90.46Z" style="fill: rgb(31, 119, 180); fill-opacity: 1; stroke-width: 0;"/></g></g><g class="errorbars"/><g class="lines"/><g class="points"/><g class="text"/></g><g class="trace scatter tracebd3963" style="stroke-miterlimit: 2; opacity: 1;"><g class="fills"><g><path class="js-fill" d="M217.55,297.23L272.75,297.23L272.75,284.31L217.55,284.31Z" style="fill: rgb(44, 160, 44); fill-opacity: 1; stroke-width: 0;"/></g></g><g class="errorbars"/><g class="lines"/><g class="points"/><g class="text"/></g><g class="trace scatter trace39a88d" style="stroke-miterlimit: 2; opacity: 1;"><g class="fills"><g><path class="js-fill" d="M165.04,232.62L173.18,232.62L173.18,219.69L165.04,219.69Z" style="fill: rgb(65, 99, 204); fill-opacity: 1; stroke-width: 0;"/></g></g><g class="errorbars"/><g class="lines"/><g class="points"/><g class="text"/></g><g class="trace scatter trace5f0fe9" style="stroke-miterlimit: 2; opacity: 1;"><g class="fills"/><g class="errorbars"/><g class="lines"/><g class="points"><path class="point" transform="translate(421.51,387.69)" d="M0.5,0A0.5,0.5 0 1,1 0,-0.5A0.5,0.5 0 0,1 0.5,0Z" style="opacity: 0; stroke-width: 0px; fill: rgb(127, 127, 127); fill-opacity: 1;"/><path class="point" transform="translate(473.9,387.69)" d="M0.5,0A0.5,0.5 0 1,1 0,-0.5A0.5,0.5 0 0,1 0.5,0Z" style="opacity: 0; stroke-width: 0px; fill: rgb(127, 127, 127); fill-opacity: 1;"/></g><g class="text"/></g><g class="trace scatter trace825ce4" style="stroke-miterlimit: 2; opacity: 1;"><g class="fills"/><g class="errorbars"/><g class="lines"/><g class="points"><path class="point" transform="translate(79.61,193.85)" d="M0.5,0A0.5,0.5 0 1,1 0,-0.5A0.5,0.5 0 0,1 0.5,0Z" style="opacity: 0; stroke-width: 0px; fill: rgb(140, 86, 75); fill-opacity: 1;"/><path class="point" transform="translate(165.04,193.85)" d="M0.5,0A0.5,0.5 0 1,1 0,-0.5A0.5,0.5 0 0,1 0.5,0Z" style="opacity: 0; stroke-width: 0px; fill: rgb(140, 86, 75); fill-opacity: 1;"/></g><g class="text"/></g><g class="trace scatter traceffe9a6" style="stroke-miterlimit: 2; opacity: 1;"><g class="fills"/><g class="errorbars"/><g class="lines"/><g class="points"><path class="point" transform="translate(173.18,258.46)" d="M0.5,0A0.5,0.5 0 1,1 0,-0.5A0.5,0.5 0 0,1 0.5,0Z" style="opacity: 0; stroke-width: 0px; fill: rgb(148, 103, 189); fill-opacity: 1;"/><path class="point" transform="translate(217.55,258.46)" d="M0.5,0A0.5,0.5 0 1,1 0,-0.5A0.5,0.5 0 0,1 0.5,0Z" style="opacity: 0; stroke-width: 0px; fill: rgb(148, 103, 189); fill-opacity: 1;"/></g><g class="text"/></g><g class="trace scatter trace24d758" style="stroke-miterlimit: 2; opacity: 1;"><g class="fills"/><g class="errorbars"/><g class="lines"/><g class="points"><path class="point" transform="translate(272.75,323.08)" d="M0.5,0A0.5,0.5 0 1,1 0,-0.5A0.5,0.5 0 0,1 0.5,0Z" style="opacity: 0; stroke-width: 0px; fill: rgb(188, 189, 34); fill-opacity: 1;"/><path class="point" transform="translate(412,323.08)" d="M0.5,0A0.5,0.5 0 1,1 0,-0.5A0.5,0.5 0 0,1 0.5,0Z" style="opacity: 0; stroke-width: 0px; fill: rgb(188, 189, 34); fill-opacity: 1;"/></g><g class="text"/></g><g class="trace scatter trace6365ec" style="stroke-miterlimit: 2; opacity: 1;"><g class="fills"/><g class="errorbars"/><g class="lines"/><g class="points"><path class="point" transform="translate(55.25,129.23)" d="M0.5,0A0.5,0.5 0 1,1 0,-0.5A0.5,0.5 0 0,1 0.5,0Z" style="opacity: 0; stroke-width: 0px; fill: rgb(214, 39, 40); fill-opacity: 1;"/><path class="point" transform="translate(75.06,129.23)" d="M0.5,0A0.5,0.5 0 1,1 0,-0.5A0.5,0.5 0 0,1 0.5,0Z" style="opacity: 0; stroke-width: 0px; fill: rgb(214, 39, 40); fill-opacity: 1;"/></g><g class="text"/></g><g class="trace scatter tracef51c26" style="stroke-miterlimit: 2; opacity: 1;"><g class="fills"/><g class="errorbars"/><g class="lines"/><g class="points"><path class="point" transform="translate(75.06,161.54)" d="M0.5,0A0.5,0.5 0 1,1 0,-0.5A0.5,0.5 0 0,1 0.5,0Z" style="opacity: 0; stroke-width: 0px; fill: rgb(227, 119, 194); fill-opacity: 1;"/><path class="point" transform="translate(79.61,161.54)" d="M0.5,0A0.5,0.5 0 1,1 0,-0.5A0.5,0.5 0 0,1 0.5,0Z" style="opacity: 0; stroke-width: 0px; fill: rgb(227, 119, 194); fill-opacity: 1;"/></g><g class="text"/></g><g class="trace scatter trace78e63e" style="stroke-miterlimit: 2; opacity: 1;"><g class="fills"/><g class="errorbars"/><g class="lines"/><g class="points"><path class="point" transform="translate(412,355.38)" d="M0.5,0A0.5,0.5 0 1,1 0,-0.5A0.5,0.5 0 0,1 0.5,0Z" style="opacity: 0; stroke-width: 0px; fill: rgb(23, 190, 207); fill-opacity: 1;"/><path class="point" transform="translate(421.51,355.38)" d="M0.5,0A0.5,0.5 0 1,1 0,-0.5A0.5,0.5 0 0,1 0.5,0Z" style="opacity: 0; stroke-width: 0px; fill: rgb(23, 190, 207); fill-opacity: 1;"/></g><g class="text"/></g><g class="trace scatter traceb2de4d" style="stroke-miterlimit: 2; opacity: 1;"><g class="fills"/><g class="errorbars"/><g class="lines"/><g class="points"><path class="point" transform="translate(28.1,64.62)" d="M0.5,0A0.5,0.5 0 1,1 0,-0.5A0.5,0.5 0 0,1 0.5,0Z" style="opacity: 0; stroke-width: 0px; fill: rgb(255, 127, 14); fill-opacity: 1;"/><path class="point" transform="translate(34.09,64.62)" d="M0.5,0A0.5,0.5 0 1,1 0,-0.5A0.5,0.5 0 0,1 0.5,0Z" style="opacity: 0; stroke-width: 0px; fill: rgb(255, 127, 14); fill-opacity: 1;"/></g><g class="text"/></g><g class="trace scatter trace0e9e69" style="stroke-miterlimit: 2; opacity: 1;"><g class="fills"/><g class="errorbars"/><g class="lines"/><g class="points"><path class="point" transform="translate(34.09,96.92)" d="M0.5,0A0.5,0.5 0 1,1 0,-0.5A0.5,0.5 0 0,1 0.5,0Z" style="opacity: 0; stroke-width: 0px; fill: rgb(31, 119, 180); fill-opacity: 1;"/><path class="point" transform="translate(55.25,96.92)" d="M0.5,0A0.5,0.5 0 1,1 0,-0.5A0.5,0.5 0 0,1 0.5,0Z" style="opacity: 0; stroke-width: 0px; fill: rgb(31, 119, 180); fill-opacity: 1;"/></g><g class="text"/></g><g class="trace scatter trace241904" style="stroke-miterlimit: 2; opacity: 1;"><g class="fills"/><g class="errorbars"/><g class="lines"/><g class="points"><path class="point" transform="translate(217.55,290.77)" d="M0.5,0A0.5,0.5 0 1,1 0,-0.5A0.5,0.5 0 0,1 0.5,0Z" style="opacity: 0; stroke-width: 0px; fill: rgb(44, 160, 44); fill-opacity: 1;"/><path class="point" transform="translate(272.75,290.77)" d="M0.5,0A0.5,0.5 0 1,1 0,-0.5A0.5,0.5 0 0,1 0.5,0Z" style="opacity: 0; stroke-width: 0px; fill: rgb(44, 160, 44); fill-opacity: 1;"/></g><g class="text"/></g><g class="trace scatter trace407604" style="stroke-miterlimit: 2; opacity: 1;"><g class="fills"/><g class="errorbars"/><g class="lines"/><g class="points"><path class="point" transform="translate(165.04,226.15)" d="M0.5,0A0.5,0.5 0 1,1 0,-0.5A0.5,0.5 0 0,1 0.5,0Z" style="opacity: 0; stroke-width: 0px; fill: rgb(65, 99, 204); fill-opacity: 1;"/><path class="point" transform="translate(173.18,226.15)" d="M0.5,0A0.5,0.5 0 1,1 0,-0.5A0.5,0.5 0 0,1 0.5,0Z" style="opacity: 0; stroke-width: 0px; fill: rgb(65, 99, 204); fill-opacity: 1;"/></g><g class="text"/></g></g></g><g class="overplot"/><path class="xlines-above crisp" d="M0,0" style="fill: none;"/><path class="ylines-above crisp" d="M0,0" style="fill: none;"/><g class="overlines-above"/><g class="xaxislayer-above"><g class="xtick"><text text-anchor="middle" x="0" y="533" transform="translate(146.1,0)" style="font-family: 'Open Sans', verdana, arial, sans-serif; font-size: 12px; fill: rgb(42, 63, 95); fill-opacity: 1; white-space: pre;">00:00</text></g><g class="xtick"><text text-anchor="middle" x="0" y="533" transform="translate(226.76999999999998,0)" style="font-family: 'Open Sans', verdana, arial, sans-serif; font-size: 12px; fill: rgb(42, 63, 95); fill-opacity: 1; white-space: pre;">01:00</text></g><g class="xtick"><text text-anchor="middle" x="0" y="533" transform="translate(307.43,0)" style="font-family: 'Open Sans', verdana, arial, sans-serif; font-size: 12px; fill: rgb(42, 63, 95); fill-opacity: 1; white-space: pre;">02:00</text></g><g class="xtick"><text text-anchor="middle" x="0" y="533" transform="translate(388.1,0)" style="font-family: 'Open Sans', verdana, arial, sans-serif; font-size: 12px; fill: rgb(42, 63, 95); fill-opacity: 1; white-space: pre;">03:00</text></g><g class="xtick"><text text-anchor="middle" x="0" y="533" transform="translate(468.77,0)" style="font-family: 'Open Sans', verdana, arial, sans-serif; font-size: 12px; fill: rgb(42, 63, 95); fill-opacity: 1; white-space: pre;">04:00</text></g><g class="xtick"><text text-anchor="middle" x="0" y="533" transform="translate(549.44,0)" style="font-family: 'Open Sans', verdana, arial, sans-serif; font-size: 12px; fill: rgb(42, 63, 95); fill-opacity: 1; white-space: pre;">05:00</text></g></g><g class="yaxislayer-above"><g class="ytick"><text text-anchor="end" x="117" y="4.199999999999999" transform="translate(0,487.69)" style="font-family: 'Open Sans', verdana, arial, sans-serif; font-size: 12px; fill: rgb(42, 63, 95); fill-opacity: 1; white-space: pre;">neutron.deploy</text></g><g class="ytick"><text text-anchor="end" x="117" y="4.199999999999999" transform="translate(0,455.38)" style="font-family: 'Open Sans', verdana, arial, sans-serif; font-size: 12px; fill: rgb(42, 63, 95); fill-opacity: 1; white-space: pre;">openvswitch.deploy</text></g><g class="ytick"><text text-anchor="end" x="117" y="4.199999999999999" transform="translate(0,423.08)" style="font-family: 'Open Sans', verdana, arial, sans-serif; font-size: 12px; fill: rgb(42, 63, 95); fill-opacity: 1; white-space: pre;">nova.deploy</text></g><g class="ytick"><text text-anchor="end" x="117" y="4.199999999999999" transform="translate(0,390.77)" style="font-family: 'Open Sans', verdana, arial, sans-serif; font-size: 12px; fill: rgb(42, 63, 95); fill-opacity: 1; white-space: pre;">glance.deploy</text></g><g class="ytick"><text text-anchor="end" x="117" y="4.199999999999999" transform="translate(0,358.46)" style="font-family: 'Open Sans', verdana, arial, sans-serif; font-size: 12px; fill: rgb(42, 63, 95); fill-opacity: 1; white-space: pre;">keystone.deploy</text></g><g class="ytick"><text text-anchor="end" x="117" y="4.199999999999999" transform="translate(0,326.15)" style="font-family: 'Open Sans', verdana, arial, sans-serif; font-size: 12px; fill: rgb(42, 63, 95); fill-opacity: 1; white-space: pre;">rabbitmq.deploy</text></g><g class="ytick"><text text-anchor="end" x="117" y="4.199999999999999" transform="translate(0,293.85)" style="font-family: 'Open Sans', verdana, arial, sans-serif; font-size: 12px; fill: rgb(42, 63, 95); fill-opacity: 1; white-space: pre;">mariadb.deploy</text></g><g class="ytick"><text text-anchor="end" x="117" y="4.199999999999999" transform="translate(0,261.53999999999996)" style="font-family: 'Open Sans', verdana, arial, sans-serif; font-size: 12px; fill: rgb(42, 63, 95); fill-opacity: 1; white-space: pre;">memcached.deploy</text></g><g class="ytick"><text text-anchor="end" x="117" y="4.199999999999999" transform="translate(0,229.23)" style="font-family: 'Open Sans', verdana, arial, sans-serif; font-size: 12px; fill: rgb(42, 63, 95); fill-opacity: 1; white-space: pre;">haproxy.deploy</text></g><g class="ytick"><text text-anchor="end" x="117" y="4.199999999999999" transform="translate(0,196.92000000000002)" style="font-family: 'Open Sans', verdana, arial, sans-serif; font-size: 12px; fill: rgb(42, 63, 95); fill-opacity: 1; white-space: pre;">common.deploy</text></g><g class="ytick"><text text-anchor="end" x="117" y="4.199999999999999" transform="translate(0,164.62)" style="font-family: 'Open Sans', verdana, arial, sans-serif; font-size: 12px; fill: rgb(42, 63, 95); fill-opacity: 1; white-space: pre;">facts.deploy</text></g></g><g class="overaxes-above"/></g></g><g class="polarlayer"/><g class="ternarylayer"/><g class="geolayer"/><g class="funnelarealayer"/><g class="pielayer"/><g class="sunburstlayer"/><g class="glimages"/><defs id="topdefs-802055"><g class="clips"/></defs><g class="layer-above"><g class="imagelayer"/><g class="shapelayer"/></g><g class="infolayer"><g class="g-gtitle"/><g class="g-xtitle"/><g class="g-ytitle"/></g></svg>