<?xml version="1.0" encoding="utf-8" standalone="no"?>
<!DOCTYPE svg PUBLIC "-//W3C//DTD SVG 1.1//EN"
  "http://www.w3.org/Graphics/SVG/1.1/DTD/svg11.dtd">
<!-- Created with matplotlib (https://matplotlib.org/) -->
<svg height="310.86825pt" version="1.1" viewBox="0 0 499.605937 310.86825" width="499.605937pt" xmlns="http://www.w3.org/2000/svg" xmlns:xlink="http://www.w3.org/1999/xlink">
 <defs>
  <style type="text/css">
*{stroke-linecap:butt;stroke-linejoin:round;}
  </style>
 </defs>
 <g id="figure_1">
  <g id="patch_1">
   <path d="M 0 310.86825 
L 499.605937 310.86825 
L 499.605937 0 
L 0 0 
z
" style="fill:#ffffff;"/>
  </g>
  <g id="axes_1">
   <g id="patch_2">
    <path d="M 135.285937 273.312 
L 492.405937 273.312 
L 492.405937 7.2 
L 135.285937 7.2 
z
" style="fill:#ffffff;"/>
   </g>
   <g id="BrokenBarHCollection_1">
    <path clip-path="url(#p5c3f5d7c4f)" d="M 146.909072 270.092903 
L 146.909072 267.946839 
L 160.357563 267.946839 
L 160.357563 270.092903 
L 146.909072 270.092903 
z
" style="fill:#0000ff;"/>
   </g>
   <g id="BrokenBarHCollection_2">
    <path clip-path="url(#p5c3f5d7c4f)" d="M 160.358384 261.508645 
L 160.358384 259.362581 
L 196.451601 259.362581 
L 196.451601 261.508645 
L 160.358384 261.508645 
z
" style="fill:#0000ff;"/>
   </g>
   <g id="BrokenBarHCollection_3">
    <path clip-path="url(#p5c3f5d7c4f)" d="M 135.301137 252.924387 
L 135.301137 250.778323 
L 146.905987 250.778323 
L 146.905987 252.924387 
L 135.301137 252.924387 
z
" style="fill:#ffa500;"/>
   </g>
   <g id="BrokenBarHCollection_4">
    <path clip-path="url(#p5c3f5d7c4f)" d="M 135.305818 244.340129 
L 135.305818 242.194065 
L 148.519831 242.194065 
L 148.519831 244.340129 
L 135.305818 244.340129 
z
" style="fill:#008000;"/>
   </g>
   <g id="BrokenBarHCollection_5">
    <path clip-path="url(#p5c3f5d7c4f)" d="M 269.587577 235.755871 
L 269.587577 233.609806 
L 281.28579 233.609806 
L 281.28579 235.755871 
L 269.587577 235.755871 
z
" style="fill:#008000;"/>
   </g>
   <g id="BrokenBarHCollection_6">
    <path clip-path="url(#p5c3f5d7c4f)" d="M 347.227286 227.171613 
L 347.227286 225.025548 
L 395.887435 225.025548 
L 395.887435 227.171613 
L 347.227286 227.171613 
z
" style="fill:#008000;"/>
   </g>
   <g id="BrokenBarHCollection_7">
    <path clip-path="url(#p5c3f5d7c4f)" d="M 395.889494 218.587355 
L 395.889494 216.44129 
L 426.184309 216.44129 
L 426.184309 218.587355 
L 395.889494 218.587355 
z
" style="fill:#008000;"/>
   </g>
   <g id="BrokenBarHCollection_8">
    <path clip-path="url(#p5c3f5d7c4f)" d="M 146.910164 210.003097 
L 146.910164 207.857032 
L 186.867159 207.857032 
L 186.867159 210.003097 
L 146.910164 210.003097 
z
" style="fill:#ffa500;"/>
   </g>
   <g id="BrokenBarHCollection_9">
    <path clip-path="url(#p5c3f5d7c4f)" d="M 135.306336 201.418839 
L 135.306336 199.272774 
L 144.60806 199.272774 
L 144.60806 201.418839 
L 135.306336 201.418839 
z
" style="fill:#008000;"/>
   </g>
   <g id="BrokenBarHCollection_10">
    <path clip-path="url(#p5c3f5d7c4f)" d="M 269.588123 192.834581 
L 269.588123 190.688516 
L 347.226006 190.688516 
L 347.226006 192.834581 
L 269.588123 192.834581 
z
" style="fill:#008000;"/>
   </g>
   <g id="BrokenBarHCollection_11">
    <path clip-path="url(#p5c3f5d7c4f)" d="M 135.302848 184.250323 
L 135.302848 182.104258 
L 147.777853 182.104258 
L 147.777853 184.250323 
L 135.302848 184.250323 
z
" style="fill:#0000ff;"/>
   </g>
   <g id="BrokenBarHCollection_12">
    <path clip-path="url(#p5c3f5d7c4f)" d="M 135.3035 175.666065 
L 135.3035 173.52 
L 144.445861 173.52 
L 144.445861 175.666065 
L 135.3035 175.666065 
z
" style="fill:#0000ff;"/>
   </g>
   <g id="BrokenBarHCollection_13">
    <path clip-path="url(#p5c3f5d7c4f)" d="M 147.778531 167.081806 
L 147.778531 164.935742 
L 202.792976 164.935742 
L 202.792976 167.081806 
L 147.778531 167.081806 
z
" style="fill:#0000ff;"/>
   </g>
   <g id="BrokenBarHCollection_14">
    <path clip-path="url(#p5c3f5d7c4f)" d="M 202.793283 158.497548 
L 202.793283 156.351484 
L 232.893766 156.351484 
L 232.893766 158.497548 
L 202.793283 158.497548 
z
" style="fill:#0000ff;"/>
   </g>
   <g id="BrokenBarHCollection_15">
    <path clip-path="url(#p5c3f5d7c4f)" d="M 232.895115 149.91329 
L 232.895115 147.767226 
L 239.53085 147.767226 
L 239.53085 149.91329 
L 232.895115 149.91329 
z
" style="fill:#0000ff;"/>
   </g>
   <g id="BrokenBarHCollection_16">
    <path clip-path="url(#p5c3f5d7c4f)" d="M 239.531806 141.329032 
L 239.531806 139.182968 
L 269.585318 139.182968 
L 269.585318 141.329032 
L 239.531806 141.329032 
z
" style="fill:#0000ff;"/>
   </g>
   <g id="BrokenBarHCollection_17">
    <path clip-path="url(#p5c3f5d7c4f)" d="M 146.908482 132.744774 
L 146.908482 130.59871 
L 157.118521 130.59871 
L 157.118521 132.744774 
L 146.908482 132.744774 
z
" style="fill:#ff0000;"/>
   </g>
   <g id="BrokenBarHCollection_18">
    <path clip-path="url(#p5c3f5d7c4f)" d="M 135.305294 124.160516 
L 135.305294 122.014452 
L 158.017024 122.014452 
L 158.017024 124.160516 
L 135.305294 124.160516 
z
" style="fill:#ffa500;"/>
   </g>
   <g id="BrokenBarHCollection_19">
    <path clip-path="url(#p5c3f5d7c4f)" d="M 269.587098 115.576258 
L 269.587098 113.430194 
L 303.499662 113.430194 
L 303.499662 115.576258 
L 269.587098 115.576258 
z
" style="fill:#ffa500;"/>
   </g>
   <g id="BrokenBarHCollection_20">
    <path clip-path="url(#p5c3f5d7c4f)" d="M 347.226705 106.992 
L 347.226705 104.845935 
L 396.268874 104.845935 
L 396.268874 106.992 
L 347.226705 106.992 
z
" style="fill:#ffa500;"/>
   </g>
   <g id="BrokenBarHCollection_21">
    <path clip-path="url(#p5c3f5d7c4f)" d="M 396.26975 98.407742 
L 396.26975 96.261677 
L 441.368513 96.261677 
L 441.368513 98.407742 
L 396.26975 98.407742 
z
" style="fill:#ffa500;"/>
   </g>
   <g id="BrokenBarHCollection_22">
    <path clip-path="url(#p5c3f5d7c4f)" d="M 135.304118 89.823484 
L 135.304118 87.677419 
L 167.279151 87.677419 
L 167.279151 89.823484 
L 135.304118 89.823484 
z
" style="fill:#ff0000;"/>
   </g>
   <g id="BrokenBarHCollection_23">
    <path clip-path="url(#p5c3f5d7c4f)" d="M 135.304686 81.239226 
L 135.304686 79.093161 
L 173.025718 79.093161 
L 173.025718 81.239226 
L 135.304686 81.239226 
z
" style="fill:#ff0000;"/>
   </g>
   <g id="BrokenBarHCollection_24">
    <path clip-path="url(#p5c3f5d7c4f)" d="M 269.586186 72.654968 
L 269.586186 70.508903 
L 291.736849 70.508903 
L 291.736849 72.654968 
L 269.586186 72.654968 
z
" style="fill:#ff0000;"/>
   </g>
   <g id="BrokenBarHCollection_25">
    <path clip-path="url(#p5c3f5d7c4f)" d="M 291.737867 64.07071 
L 291.737867 61.924645 
L 310.12992 61.924645 
L 310.12992 64.07071 
L 291.737867 64.07071 
z
" style="fill:#ff0000;"/>
   </g>
   <g id="BrokenBarHCollection_26">
    <path clip-path="url(#p5c3f5d7c4f)" d="M 291.738793 55.486452 
L 291.738793 53.340387 
L 332.892498 53.340387 
L 332.892498 55.486452 
L 291.738793 55.486452 
z
" style="fill:#ff0000;"/>
   </g>
   <g id="BrokenBarHCollection_27">
    <path clip-path="url(#p5c3f5d7c4f)" d="M 332.893165 46.902194 
L 332.893165 44.756129 
L 355.926229 44.756129 
L 355.926229 46.902194 
L 332.893165 46.902194 
z
" style="fill:#ff0000;"/>
   </g>
   <g id="BrokenBarHCollection_28">
    <path clip-path="url(#p5c3f5d7c4f)" d="M 347.227839 38.317935 
L 347.227839 36.171871 
L 436.63004 36.171871 
L 436.63004 38.317935 
L 347.227839 38.317935 
z
" style="fill:#ff0000;"/>
   </g>
   <g id="BrokenBarHCollection_29">
    <path clip-path="url(#p5c3f5d7c4f)" d="M 355.927349 29.733677 
L 355.927349 27.587613 
L 467.800706 27.587613 
L 467.800706 29.733677 
L 355.927349 29.733677 
z
" style="fill:#ff0000;"/>
   </g>
   <g id="BrokenBarHCollection_30">
    <path clip-path="url(#p5c3f5d7c4f)" d="M 146.906632 21.149419 
L 146.906632 19.003355 
L 166.264077 19.003355 
L 166.264077 21.149419 
L 146.906632 21.149419 
z
" style="fill:#808080;"/>
   </g>
   <g id="BrokenBarHCollection_31">
    <path clip-path="url(#p5c3f5d7c4f)" d="M 146.909579 12.565161 
L 146.909579 10.419097 
L 164.311507 10.419097 
L 164.311507 12.565161 
L 146.909579 12.565161 
z
" style="fill:#0000ff;"/>
   </g>
   <g id="matplotlib.axis_1">
    <g id="xtick_1">
     <g id="line2d_1">
      <path clip-path="url(#p5c3f5d7c4f)" d="M 135.285937 273.312 
L 135.285937 7.2 
" style="fill:none;stroke:#b0b0b0;stroke-linecap:square;stroke-width:0.8;"/>
     </g>
     <g id="line2d_2">
      <defs>
       <path d="M 0 0 
L 0 3.5 
" id="m9e7ad4cc7d" style="stroke:#000000;stroke-width:0.8;"/>
      </defs>
      <g>
       <use style="stroke:#000000;stroke-width:0.8;" x="135.285937" xlink:href="#m9e7ad4cc7d" y="273.312"/>
      </g>
     </g>
     <g id="text_1">
      <!-- 0 -->
      <defs>
       <path d="M 31.78125 66.40625 
Q 24.171875 66.40625 20.328125 58.90625 
Q 16.5 51.421875 16.5 36.375 
Q 16.5 21.390625 20.328125 13.890625 
Q 24.171875 6.390625 31.78125 6.390625 
Q 39.453125 6.390625 43.28125 13.890625 
Q 47.125 21.390625 47.125 36.375 
Q 47.125 51.421875 43.28125 58.90625 
Q 39.453125 66.40625 31.78125 66.40625 
z
M 31.78125 74.21875 
Q 44.046875 74.21875 50.515625 64.515625 
Q 56.984375 54.828125 56.984375 36.375 
Q 56.984375 17.96875 50.515625 8.265625 
Q 44.046875 -1.421875 31.78125 -1.421875 
Q 19.53125 -1.421875 13.0625 8.265625 
Q 6.59375 17.96875 6.59375 36.375 
Q 6.59375 54.828125 13.0625 64.515625 
Q 19.53125 74.21875 31.78125 74.21875 
z
" id="DejaVuSans-48"/>
      </defs>
      <g transform="translate(132.104687 287.910437)scale(0.1 -0.1)">
       <use xlink:href="#DejaVuSans-48"/>
      </g>
     </g>
    </g>
    <g id="xtick_2">
     <g id="line2d_3">
      <path clip-path="url(#p5c3f5d7c4f)" d="M 184.496401 273.312 
L 184.496401 7.2 
" style="fill:none;stroke:#b0b0b0;stroke-linecap:square;stroke-width:0.8;"/>
     </g>
     <g id="line2d_4">
      <g>
       <use style="stroke:#000000;stroke-width:0.8;" x="184.496401" xlink:href="#m9e7ad4cc7d" y="273.312"/>
      </g>
     </g>
     <g id="text_2">
      <!-- 20 -->
      <defs>
       <path d="M 19.1875 8.296875 
L 53.609375 8.296875 
L 53.609375 0 
L 7.328125 0 
L 7.328125 8.296875 
Q 12.9375 14.109375 22.625 23.890625 
Q 32.328125 33.6875 34.8125 36.53125 
Q 39.546875 41.84375 41.421875 45.53125 
Q 43.3125 49.21875 43.3125 52.78125 
Q 43.3125 58.59375 39.234375 62.25 
Q 35.15625 65.921875 28.609375 65.921875 
Q 23.96875 65.921875 18.8125 64.3125 
Q 13.671875 62.703125 7.8125 59.421875 
L 7.8125 69.390625 
Q 13.765625 71.78125 18.9375 73 
Q 24.125 74.21875 28.421875 74.21875 
Q 39.75 74.21875 46.484375 68.546875 
Q 53.21875 62.890625 53.21875 53.421875 
Q 53.21875 48.921875 51.53125 44.890625 
Q 49.859375 40.875 45.40625 35.40625 
Q 44.1875 33.984375 37.640625 27.21875 
Q 31.109375 20.453125 19.1875 8.296875 
z
" id="DejaVuSans-50"/>
      </defs>
      <g transform="translate(178.133901 287.910437)scale(0.1 -0.1)">
       <use xlink:href="#DejaVuSans-50"/>
       <use x="63.623047" xlink:href="#DejaVuSans-48"/>
      </g>
     </g>
    </g>
    <g id="xtick_3">
     <g id="line2d_5">
      <path clip-path="url(#p5c3f5d7c4f)" d="M 233.706864 273.312 
L 233.706864 7.2 
" style="fill:none;stroke:#b0b0b0;stroke-linecap:square;stroke-width:0.8;"/>
     </g>
     <g id="line2d_6">
      <g>
       <use style="stroke:#000000;stroke-width:0.8;" x="233.706864" xlink:href="#m9e7ad4cc7d" y="273.312"/>
      </g>
     </g>
     <g id="text_3">
      <!-- 40 -->
      <defs>
       <path d="M 37.796875 64.3125 
L 12.890625 25.390625 
L 37.796875 25.390625 
z
M 35.203125 72.90625 
L 47.609375 72.90625 
L 47.609375 25.390625 
L 58.015625 25.390625 
L 58.015625 17.1875 
L 47.609375 17.1875 
L 47.609375 0 
L 37.796875 0 
L 37.796875 17.1875 
L 4.890625 17.1875 
L 4.890625 26.703125 
z
" id="DejaVuSans-52"/>
      </defs>
      <g transform="translate(227.344364 287.910437)scale(0.1 -0.1)">
       <use xlink:href="#DejaVuSans-52"/>
       <use x="63.623047" xlink:href="#DejaVuSans-48"/>
      </g>
     </g>
    </g>
    <g id="xtick_4">
     <g id="line2d_7">
      <path clip-path="url(#p5c3f5d7c4f)" d="M 282.917327 273.312 
L 282.917327 7.2 
" style="fill:none;stroke:#b0b0b0;stroke-linecap:square;stroke-width:0.8;"/>
     </g>
     <g id="line2d_8">
      <g>
       <use style="stroke:#000000;stroke-width:0.8;" x="282.917327" xlink:href="#m9e7ad4cc7d" y="273.312"/>
      </g>
     </g>
     <g id="text_4">
      <!-- 60 -->
      <defs>
       <path d="M 33.015625 40.375 
Q 26.375 40.375 22.484375 35.828125 
Q 18.609375 31.296875 18.609375 23.390625 
Q 18.609375 15.53125 22.484375 10.953125 
Q 26.375 6.390625 33.015625 6.390625 
Q 39.65625 6.390625 43.53125 10.953125 
Q 47.40625 15.53125 47.40625 23.390625 
Q 47.40625 31.296875 43.53125 35.828125 
Q 39.65625 40.375 33.015625 40.375 
z
M 52.59375 71.296875 
L 52.59375 62.3125 
Q 48.875 64.0625 45.09375 64.984375 
Q 41.3125 65.921875 37.59375 65.921875 
Q 27.828125 65.921875 22.671875 59.328125 
Q 17.53125 52.734375 16.796875 39.40625 
Q 19.671875 43.65625 24.015625 45.921875 
Q 28.375 48.1875 33.59375 48.1875 
Q 44.578125 48.1875 50.953125 41.515625 
Q 57.328125 34.859375 57.328125 23.390625 
Q 57.328125 12.15625 50.6875 5.359375 
Q 44.046875 -1.421875 33.015625 -1.421875 
Q 20.359375 -1.421875 13.671875 8.265625 
Q 6.984375 17.96875 6.984375 36.375 
Q 6.984375 53.65625 15.1875 63.9375 
Q 23.390625 74.21875 37.203125 74.21875 
Q 40.921875 74.21875 44.703125 73.484375 
Q 48.484375 72.75 52.59375 71.296875 
z
" id="DejaVuSans-54"/>
      </defs>
      <g transform="translate(276.554827 287.910437)scale(0.1 -0.1)">
       <use xlink:href="#DejaVuSans-54"/>
       <use x="63.623047" xlink:href="#DejaVuSans-48"/>
      </g>
     </g>
    </g>
    <g id="xtick_5">
     <g id="line2d_9">
      <path clip-path="url(#p5c3f5d7c4f)" d="M 332.12779 273.312 
L 332.12779 7.2 
" style="fill:none;stroke:#b0b0b0;stroke-linecap:square;stroke-width:0.8;"/>
     </g>
     <g id="line2d_10">
      <g>
       <use style="stroke:#000000;stroke-width:0.8;" x="332.12779" xlink:href="#m9e7ad4cc7d" y="273.312"/>
      </g>
     </g>
     <g id="text_5">
      <!-- 80 -->
      <defs>
       <path d="M 31.78125 34.625 
Q 24.75 34.625 20.71875 30.859375 
Q 16.703125 27.09375 16.703125 20.515625 
Q 16.703125 13.921875 20.71875 10.15625 
Q 24.75 6.390625 31.78125 6.390625 
Q 38.8125 6.390625 42.859375 10.171875 
Q 46.921875 13.96875 46.921875 20.515625 
Q 46.921875 27.09375 42.890625 30.859375 
Q 38.875 34.625 31.78125 34.625 
z
M 21.921875 38.8125 
Q 15.578125 40.375 12.03125 44.71875 
Q 8.5 49.078125 8.5 55.328125 
Q 8.5 64.0625 14.71875 69.140625 
Q 20.953125 74.21875 31.78125 74.21875 
Q 42.671875 74.21875 48.875 69.140625 
Q 55.078125 64.0625 55.078125 55.328125 
Q 55.078125 49.078125 51.53125 44.71875 
Q 48 40.375 41.703125 38.8125 
Q 48.828125 37.15625 52.796875 32.3125 
Q 56.78125 27.484375 56.78125 20.515625 
Q 56.78125 9.90625 50.3125 4.234375 
Q 43.84375 -1.421875 31.78125 -1.421875 
Q 19.734375 -1.421875 13.25 4.234375 
Q 6.78125 9.90625 6.78125 20.515625 
Q 6.78125 27.484375 10.78125 32.3125 
Q 14.796875 37.15625 21.921875 38.8125 
z
M 18.3125 54.390625 
Q 18.3125 48.734375 21.84375 45.5625 
Q 25.390625 42.390625 31.78125 42.390625 
Q 38.140625 42.390625 41.71875 45.5625 
Q 45.3125 48.734375 45.3125 54.390625 
Q 45.3125 60.0625 41.71875 63.234375 
Q 38.140625 66.40625 31.78125 66.40625 
Q 25.390625 66.40625 21.84375 63.234375 
Q 18.3125 60.0625 18.3125 54.390625 
z
" id="DejaVuSans-56"/>
      </defs>
      <g transform="translate(325.76529 287.910437)scale(0.1 -0.1)">
       <use xlink:href="#DejaVuSans-56"/>
       <use x="63.623047" xlink:href="#DejaVuSans-48"/>
      </g>
     </g>
    </g>
    <g id="xtick_6">
     <g id="line2d_11">
      <path clip-path="url(#p5c3f5d7c4f)" d="M 381.338254 273.312 
L 381.338254 7.2 
" style="fill:none;stroke:#b0b0b0;stroke-linecap:square;stroke-width:0.8;"/>
     </g>
     <g id="line2d_12">
      <g>
       <use style="stroke:#000000;stroke-width:0.8;" x="381.338254" xlink:href="#m9e7ad4cc7d" y="273.312"/>
      </g>
     </g>
     <g id="text_6">
      <!-- 100 -->
      <defs>
       <path d="M 12.40625 8.296875 
L 28.515625 8.296875 
L 28.515625 63.921875 
L 10.984375 60.40625 
L 10.984375 69.390625 
L 28.421875 72.90625 
L 38.28125 72.90625 
L 38.28125 8.296875 
L 54.390625 8.296875 
L 54.390625 0 
L 12.40625 0 
z
" id="DejaVuSans-49"/>
      </defs>
      <g transform="translate(371.794504 287.910437)scale(0.1 -0.1)">
       <use xlink:href="#DejaVuSans-49"/>
       <use x="63.623047" xlink:href="#DejaVuSans-48"/>
       <use x="127.246094" xlink:href="#DejaVuSans-48"/>
      </g>
     </g>
    </g>
    <g id="xtick_7">
     <g id="line2d_13">
      <path clip-path="url(#p5c3f5d7c4f)" d="M 430.548717 273.312 
L 430.548717 7.2 
" style="fill:none;stroke:#b0b0b0;stroke-linecap:square;stroke-width:0.8;"/>
     </g>
     <g id="line2d_14">
      <g>
       <use style="stroke:#000000;stroke-width:0.8;" x="430.548717" xlink:href="#m9e7ad4cc7d" y="273.312"/>
      </g>
     </g>
     <g id="text_7">
      <!-- 120 -->
      <g transform="translate(421.004967 287.910437)scale(0.1 -0.1)">
       <use xlink:href="#DejaVuSans-49"/>
       <use x="63.623047" xlink:href="#DejaVuSans-50"/>
       <use x="127.246094" xlink:href="#DejaVuSans-48"/>
      </g>
     </g>
    </g>
    <g id="xtick_8">
     <g id="line2d_15">
      <path clip-path="url(#p5c3f5d7c4f)" d="M 479.75918 273.312 
L 479.75918 7.2 
" style="fill:none;stroke:#b0b0b0;stroke-linecap:square;stroke-width:0.8;"/>
     </g>
     <g id="line2d_16">
      <g>
       <use style="stroke:#000000;stroke-width:0.8;" x="479.75918" xlink:href="#m9e7ad4cc7d" y="273.312"/>
      </g>
     </g>
     <g id="text_8">
      <!-- 140 -->
      <g transform="translate(470.21543 287.910437)scale(0.1 -0.1)">
       <use xlink:href="#DejaVuSans-49"/>
       <use x="63.623047" xlink:href="#DejaVuSans-52"/>
       <use x="127.246094" xlink:href="#DejaVuSans-48"/>
      </g>
     </g>
    </g>
    <g id="text_9">
     <!-- Time (s) -->
     <defs>
      <path d="M -0.296875 72.90625 
L 61.375 72.90625 
L 61.375 64.59375 
L 35.5 64.59375 
L 35.5 0 
L 25.59375 0 
L 25.59375 64.59375 
L -0.296875 64.59375 
z
" id="DejaVuSans-84"/>
      <path d="M 9.421875 54.6875 
L 18.40625 54.6875 
L 18.40625 0 
L 9.421875 0 
z
M 9.421875 75.984375 
L 18.40625 75.984375 
L 18.40625 64.59375 
L 9.421875 64.59375 
z
" id="DejaVuSans-105"/>
      <path d="M 52 44.1875 
Q 55.375 50.25 60.0625 53.125 
Q 64.75 56 71.09375 56 
Q 79.640625 56 84.28125 50.015625 
Q 88.921875 44.046875 88.921875 33.015625 
L 88.921875 0 
L 79.890625 0 
L 79.890625 32.71875 
Q 79.890625 40.578125 77.09375 44.375 
Q 74.3125 48.1875 68.609375 48.1875 
Q 61.625 48.1875 57.5625 43.546875 
Q 53.515625 38.921875 53.515625 30.90625 
L 53.515625 0 
L 44.484375 0 
L 44.484375 32.71875 
Q 44.484375 40.625 41.703125 44.40625 
Q 38.921875 48.1875 33.109375 48.1875 
Q 26.21875 48.1875 22.15625 43.53125 
Q 18.109375 38.875 18.109375 30.90625 
L 18.109375 0 
L 9.078125 0 
L 9.078125 54.6875 
L 18.109375 54.6875 
L 18.109375 46.1875 
Q 21.1875 51.21875 25.484375 53.609375 
Q 29.78125 56 35.6875 56 
Q 41.65625 56 45.828125 52.96875 
Q 50 49.953125 52 44.1875 
z
" id="DejaVuSans-109"/>
      <path d="M 56.203125 29.59375 
L 56.203125 25.203125 
L 14.890625 25.203125 
Q 15.484375 15.921875 20.484375 11.0625 
Q 25.484375 6.203125 34.421875 6.203125 
Q 39.59375 6.203125 44.453125 7.46875 
Q 49.3125 8.734375 54.109375 11.28125 
L 54.109375 2.78125 
Q 49.265625 0.734375 44.1875 -0.34375 
Q 39.109375 -1.421875 33.890625 -1.421875 
Q 20.796875 -1.421875 13.15625 6.1875 
Q 5.515625 13.8125 5.515625 26.8125 
Q 5.515625 40.234375 12.765625 48.109375 
Q 20.015625 56 32.328125 56 
Q 43.359375 56 49.78125 48.890625 
Q 56.203125 41.796875 56.203125 29.59375 
z
M 47.21875 32.234375 
Q 47.125 39.59375 43.09375 43.984375 
Q 39.0625 48.390625 32.421875 48.390625 
Q 24.90625 48.390625 20.390625 44.140625 
Q 15.875 39.890625 15.1875 32.171875 
z
" id="DejaVuSans-101"/>
      <path id="DejaVuSans-32"/>
      <path d="M 31 75.875 
Q 24.46875 64.65625 21.28125 53.65625 
Q 18.109375 42.671875 18.109375 31.390625 
Q 18.109375 20.125 21.3125 9.0625 
Q 24.515625 -2 31 -13.1875 
L 23.1875 -13.1875 
Q 15.875 -1.703125 12.234375 9.375 
Q 8.59375 20.453125 8.59375 31.390625 
Q 8.59375 42.28125 12.203125 53.3125 
Q 15.828125 64.359375 23.1875 75.875 
z
" id="DejaVuSans-40"/>
      <path d="M 44.28125 53.078125 
L 44.28125 44.578125 
Q 40.484375 46.53125 36.375 47.5 
Q 32.28125 48.484375 27.875 48.484375 
Q 21.1875 48.484375 17.84375 46.4375 
Q 14.5 44.390625 14.5 40.28125 
Q 14.5 37.15625 16.890625 35.375 
Q 19.28125 33.59375 26.515625 31.984375 
L 29.59375 31.296875 
Q 39.15625 29.25 43.1875 25.515625 
Q 47.21875 21.78125 47.21875 15.09375 
Q 47.21875 7.46875 41.1875 3.015625 
Q 35.15625 -1.421875 24.609375 -1.421875 
Q 20.21875 -1.421875 15.453125 -0.5625 
Q 10.6875 0.296875 5.421875 2 
L 5.421875 11.28125 
Q 10.40625 8.6875 15.234375 7.390625 
Q 20.0625 6.109375 24.8125 6.109375 
Q 31.15625 6.109375 34.5625 8.28125 
Q 37.984375 10.453125 37.984375 14.40625 
Q 37.984375 18.0625 35.515625 20.015625 
Q 33.0625 21.96875 24.703125 23.78125 
L 21.578125 24.515625 
Q 13.234375 26.265625 9.515625 29.90625 
Q 5.8125 33.546875 5.8125 39.890625 
Q 5.8125 47.609375 11.28125 51.796875 
Q 16.75 56 26.8125 56 
Q 31.78125 56 36.171875 55.265625 
Q 40.578125 54.546875 44.28125 53.078125 
z
" id="DejaVuSans-115"/>
      <path d="M 8.015625 75.875 
L 15.828125 75.875 
Q 23.140625 64.359375 26.78125 53.3125 
Q 30.421875 42.28125 30.421875 31.390625 
Q 30.421875 20.453125 26.78125 9.375 
Q 23.140625 -1.703125 15.828125 -13.1875 
L 8.015625 -13.1875 
Q 14.5 -2 17.703125 9.0625 
Q 20.90625 20.125 20.90625 31.390625 
Q 20.90625 42.671875 17.703125 53.65625 
Q 14.5 64.65625 8.015625 75.875 
z
" id="DejaVuSans-41"/>
     </defs>
     <g transform="translate(293.363125 301.588562)scale(0.1 -0.1)">
      <use xlink:href="#DejaVuSans-84"/>
      <use x="61.037109" xlink:href="#DejaVuSans-105"/>
      <use x="88.820312" xlink:href="#DejaVuSans-109"/>
      <use x="186.232422" xlink:href="#DejaVuSans-101"/>
      <use x="247.755859" xlink:href="#DejaVuSans-32"/>
      <use x="279.542969" xlink:href="#DejaVuSans-40"/>
      <use x="318.556641" xlink:href="#DejaVuSans-115"/>
      <use x="370.65625" xlink:href="#DejaVuSans-41"/>
     </g>
    </g>
   </g>
   <g id="matplotlib.axis_2">
    <g id="ytick_1">
     <g id="line2d_17">
      <path clip-path="url(#p5c3f5d7c4f)" d="M 135.285937 269.019871 
L 492.405937 269.019871 
" style="fill:none;stroke:#b0b0b0;stroke-linecap:square;stroke-width:0.8;"/>
     </g>
     <g id="line2d_18">
      <defs>
       <path d="M 0 0 
L -3.5 0 
" id="mc896c693c3" style="stroke:#000000;stroke-width:0.8;"/>
      </defs>
      <g>
       <use style="stroke:#000000;stroke-width:0.8;" x="135.285937" xlink:href="#mc896c693c3" y="269.019871"/>
      </g>
     </g>
     <g id="text_10">
      <!-- common.ktb_deploy -->
      <defs>
       <path d="M 48.78125 52.59375 
L 48.78125 44.1875 
Q 44.96875 46.296875 41.140625 47.34375 
Q 37.3125 48.390625 33.40625 48.390625 
Q 24.65625 48.390625 19.8125 42.84375 
Q 14.984375 37.3125 14.984375 27.296875 
Q 14.984375 17.28125 19.8125 11.734375 
Q 24.65625 6.203125 33.40625 6.203125 
Q 37.3125 6.203125 41.140625 7.25 
Q 44.96875 8.296875 48.78125 10.40625 
L 48.78125 2.09375 
Q 45.015625 0.34375 40.984375 -0.53125 
Q 36.96875 -1.421875 32.421875 -1.421875 
Q 20.0625 -1.421875 12.78125 6.34375 
Q 5.515625 14.109375 5.515625 27.296875 
Q 5.515625 40.671875 12.859375 48.328125 
Q 20.21875 56 33.015625 56 
Q 37.15625 56 41.109375 55.140625 
Q 45.0625 54.296875 48.78125 52.59375 
z
" id="DejaVuSans-99"/>
       <path d="M 30.609375 48.390625 
Q 23.390625 48.390625 19.1875 42.75 
Q 14.984375 37.109375 14.984375 27.296875 
Q 14.984375 17.484375 19.15625 11.84375 
Q 23.34375 6.203125 30.609375 6.203125 
Q 37.796875 6.203125 41.984375 11.859375 
Q 46.1875 17.53125 46.1875 27.296875 
Q 46.1875 37.015625 41.984375 42.703125 
Q 37.796875 48.390625 30.609375 48.390625 
z
M 30.609375 56 
Q 42.328125 56 49.015625 48.375 
Q 55.71875 40.765625 55.71875 27.296875 
Q 55.71875 13.875 49.015625 6.21875 
Q 42.328125 -1.421875 30.609375 -1.421875 
Q 18.84375 -1.421875 12.171875 6.21875 
Q 5.515625 13.875 5.515625 27.296875 
Q 5.515625 40.765625 12.171875 48.375 
Q 18.84375 56 30.609375 56 
z
" id="DejaVuSans-111"/>
       <path d="M 54.890625 33.015625 
L 54.890625 0 
L 45.90625 0 
L 45.90625 32.71875 
Q 45.90625 40.484375 42.875 44.328125 
Q 39.84375 48.1875 33.796875 48.1875 
Q 26.515625 48.1875 22.3125 43.546875 
Q 18.109375 38.921875 18.109375 30.90625 
L 18.109375 0 
L 9.078125 0 
L 9.078125 54.6875 
L 18.109375 54.6875 
L 18.109375 46.1875 
Q 21.34375 51.125 25.703125 53.5625 
Q 30.078125 56 35.796875 56 
Q 45.21875 56 50.046875 50.171875 
Q 54.890625 44.34375 54.890625 33.015625 
z
" id="DejaVuSans-110"/>
       <path d="M 10.6875 12.40625 
L 21 12.40625 
L 21 0 
L 10.6875 0 
z
" id="DejaVuSans-46"/>
       <path d="M 9.078125 75.984375 
L 18.109375 75.984375 
L 18.109375 31.109375 
L 44.921875 54.6875 
L 56.390625 54.6875 
L 27.390625 29.109375 
L 57.625 0 
L 45.90625 0 
L 18.109375 26.703125 
L 18.109375 0 
L 9.078125 0 
z
" id="DejaVuSans-107"/>
       <path d="M 18.3125 70.21875 
L 18.3125 54.6875 
L 36.8125 54.6875 
L 36.8125 47.703125 
L 18.3125 47.703125 
L 18.3125 18.015625 
Q 18.3125 11.328125 20.140625 9.421875 
Q 21.96875 7.515625 27.59375 7.515625 
L 36.8125 7.515625 
L 36.8125 0 
L 27.59375 0 
Q 17.1875 0 13.234375 3.875 
Q 9.28125 7.765625 9.28125 18.015625 
L 9.28125 47.703125 
L 2.6875 47.703125 
L 2.6875 54.6875 
L 9.28125 54.6875 
L 9.28125 70.21875 
z
" id="DejaVuSans-116"/>
       <path d="M 48.6875 27.296875 
Q 48.6875 37.203125 44.609375 42.84375 
Q 40.53125 48.484375 33.40625 48.484375 
Q 26.265625 48.484375 22.1875 42.84375 
Q 18.109375 37.203125 18.109375 27.296875 
Q 18.109375 17.390625 22.1875 11.75 
Q 26.265625 6.109375 33.40625 6.109375 
Q 40.53125 6.109375 44.609375 11.75 
Q 48.6875 17.390625 48.6875 27.296875 
z
M 18.109375 46.390625 
Q 20.953125 51.265625 25.265625 53.625 
Q 29.59375 56 35.59375 56 
Q 45.5625 56 51.78125 48.09375 
Q 58.015625 40.1875 58.015625 27.296875 
Q 58.015625 14.40625 51.78125 6.484375 
Q 45.5625 -1.421875 35.59375 -1.421875 
Q 29.59375 -1.421875 25.265625 0.953125 
Q 20.953125 3.328125 18.109375 8.203125 
L 18.109375 0 
L 9.078125 0 
L 9.078125 75.984375 
L 18.109375 75.984375 
z
" id="DejaVuSans-98"/>
       <path d="M 50.984375 -16.609375 
L 50.984375 -23.578125 
L -0.984375 -23.578125 
L -0.984375 -16.609375 
z
" id="DejaVuSans-95"/>
       <path d="M 45.40625 46.390625 
L 45.40625 75.984375 
L 54.390625 75.984375 
L 54.390625 0 
L 45.40625 0 
L 45.40625 8.203125 
Q 42.578125 3.328125 38.25 0.953125 
Q 33.9375 -1.421875 27.875 -1.421875 
Q 17.96875 -1.421875 11.734375 6.484375 
Q 5.515625 14.40625 5.515625 27.296875 
Q 5.515625 40.1875 11.734375 48.09375 
Q 17.96875 56 27.875 56 
Q 33.9375 56 38.25 53.625 
Q 42.578125 51.265625 45.40625 46.390625 
z
M 14.796875 27.296875 
Q 14.796875 17.390625 18.875 11.75 
Q 22.953125 6.109375 30.078125 6.109375 
Q 37.203125 6.109375 41.296875 11.75 
Q 45.40625 17.390625 45.40625 27.296875 
Q 45.40625 37.203125 41.296875 42.84375 
Q 37.203125 48.484375 30.078125 48.484375 
Q 22.953125 48.484375 18.875 42.84375 
Q 14.796875 37.203125 14.796875 27.296875 
z
" id="DejaVuSans-100"/>
       <path d="M 18.109375 8.203125 
L 18.109375 -20.796875 
L 9.078125 -20.796875 
L 9.078125 54.6875 
L 18.109375 54.6875 
L 18.109375 46.390625 
Q 20.953125 51.265625 25.265625 53.625 
Q 29.59375 56 35.59375 56 
Q 45.5625 56 51.78125 48.09375 
Q 58.015625 40.1875 58.015625 27.296875 
Q 58.015625 14.40625 51.78125 6.484375 
Q 45.5625 -1.421875 35.59375 -1.421875 
Q 29.59375 -1.421875 25.265625 0.953125 
Q 20.953125 3.328125 18.109375 8.203125 
z
M 48.6875 27.296875 
Q 48.6875 37.203125 44.609375 42.84375 
Q 40.53125 48.484375 33.40625 48.484375 
Q 26.265625 48.484375 22.1875 42.84375 
Q 18.109375 37.203125 18.109375 27.296875 
Q 18.109375 17.390625 22.1875 11.75 
Q 26.265625 6.109375 33.40625 6.109375 
Q 40.53125 6.109375 44.609375 11.75 
Q 48.6875 17.390625 48.6875 27.296875 
z
" id="DejaVuSans-112"/>
       <path d="M 9.421875 75.984375 
L 18.40625 75.984375 
L 18.40625 0 
L 9.421875 0 
z
" id="DejaVuSans-108"/>
       <path d="M 32.171875 -5.078125 
Q 28.375 -14.84375 24.75 -17.8125 
Q 21.140625 -20.796875 15.09375 -20.796875 
L 7.90625 -20.796875 
L 7.90625 -13.28125 
L 13.1875 -13.28125 
Q 16.890625 -13.28125 18.9375 -11.515625 
Q 21 -9.765625 23.484375 -3.21875 
L 25.09375 0.875 
L 2.984375 54.6875 
L 12.5 54.6875 
L 29.59375 11.921875 
L 46.6875 54.6875 
L 56.203125 54.6875 
z
" id="DejaVuSans-121"/>
      </defs>
      <g transform="translate(26.828125 272.81909)scale(0.1 -0.1)">
       <use xlink:href="#DejaVuSans-99"/>
       <use x="54.980469" xlink:href="#DejaVuSans-111"/>
       <use x="116.162109" xlink:href="#DejaVuSans-109"/>
       <use x="213.574219" xlink:href="#DejaVuSans-109"/>
       <use x="310.986328" xlink:href="#DejaVuSans-111"/>
       <use x="372.167969" xlink:href="#DejaVuSans-110"/>
       <use x="435.546875" xlink:href="#DejaVuSans-46"/>
       <use x="467.333984" xlink:href="#DejaVuSans-107"/>
       <use x="525.244141" xlink:href="#DejaVuSans-116"/>
       <use x="564.453125" xlink:href="#DejaVuSans-98"/>
       <use x="627.929688" xlink:href="#DejaVuSans-95"/>
       <use x="677.929688" xlink:href="#DejaVuSans-100"/>
       <use x="741.40625" xlink:href="#DejaVuSans-101"/>
       <use x="802.929688" xlink:href="#DejaVuSans-112"/>
       <use x="866.40625" xlink:href="#DejaVuSans-108"/>
       <use x="894.189453" xlink:href="#DejaVuSans-111"/>
       <use x="955.371094" xlink:href="#DejaVuSans-121"/>
      </g>
     </g>
    </g>
    <g id="ytick_2">
     <g id="line2d_19">
      <path clip-path="url(#p5c3f5d7c4f)" d="M 135.285937 260.435613 
L 492.405937 260.435613 
" style="fill:none;stroke:#b0b0b0;stroke-linecap:square;stroke-width:0.8;"/>
     </g>
     <g id="line2d_20">
      <g>
       <use style="stroke:#000000;stroke-width:0.8;" x="135.285937" xlink:href="#mc896c693c3" y="260.435613"/>
      </g>
     </g>
     <g id="text_11">
      <!-- common.deploy -->
      <g transform="translate(47.8875 264.234832)scale(0.1 -0.1)">
       <use xlink:href="#DejaVuSans-99"/>
       <use x="54.980469" xlink:href="#DejaVuSans-111"/>
       <use x="116.162109" xlink:href="#DejaVuSans-109"/>
       <use x="213.574219" xlink:href="#DejaVuSans-109"/>
       <use x="310.986328" xlink:href="#DejaVuSans-111"/>
       <use x="372.167969" xlink:href="#DejaVuSans-110"/>
       <use x="435.546875" xlink:href="#DejaVuSans-46"/>
       <use x="467.333984" xlink:href="#DejaVuSans-100"/>
       <use x="530.810547" xlink:href="#DejaVuSans-101"/>
       <use x="592.333984" xlink:href="#DejaVuSans-112"/>
       <use x="655.810547" xlink:href="#DejaVuSans-108"/>
       <use x="683.59375" xlink:href="#DejaVuSans-111"/>
       <use x="744.775391" xlink:href="#DejaVuSans-121"/>
      </g>
     </g>
    </g>
    <g id="ytick_3">
     <g id="line2d_21">
      <path clip-path="url(#p5c3f5d7c4f)" d="M 135.285937 251.851355 
L 492.405937 251.851355 
" style="fill:none;stroke:#b0b0b0;stroke-linecap:square;stroke-width:0.8;"/>
     </g>
     <g id="line2d_22">
      <g>
       <use style="stroke:#000000;stroke-width:0.8;" x="135.285937" xlink:href="#mc896c693c3" y="251.851355"/>
      </g>
     </g>
     <g id="text_12">
      <!-- facts.deploy -->
      <defs>
       <path d="M 37.109375 75.984375 
L 37.109375 68.5 
L 28.515625 68.5 
Q 23.6875 68.5 21.796875 66.546875 
Q 19.921875 64.59375 19.921875 59.515625 
L 19.921875 54.6875 
L 34.71875 54.6875 
L 34.71875 47.703125 
L 19.921875 47.703125 
L 19.921875 0 
L 10.890625 0 
L 10.890625 47.703125 
L 2.296875 47.703125 
L 2.296875 54.6875 
L 10.890625 54.6875 
L 10.890625 58.5 
Q 10.890625 67.625 15.140625 71.796875 
Q 19.390625 75.984375 28.609375 75.984375 
z
" id="DejaVuSans-102"/>
       <path d="M 34.28125 27.484375 
Q 23.390625 27.484375 19.1875 25 
Q 14.984375 22.515625 14.984375 16.5 
Q 14.984375 11.71875 18.140625 8.90625 
Q 21.296875 6.109375 26.703125 6.109375 
Q 34.1875 6.109375 38.703125 11.40625 
Q 43.21875 16.703125 43.21875 25.484375 
L 43.21875 27.484375 
z
M 52.203125 31.203125 
L 52.203125 0 
L 43.21875 0 
L 43.21875 8.296875 
Q 40.140625 3.328125 35.546875 0.953125 
Q 30.953125 -1.421875 24.3125 -1.421875 
Q 15.921875 -1.421875 10.953125 3.296875 
Q 6 8.015625 6 15.921875 
Q 6 25.140625 12.171875 29.828125 
Q 18.359375 34.515625 30.609375 34.515625 
L 43.21875 34.515625 
L 43.21875 35.40625 
Q 43.21875 41.609375 39.140625 45 
Q 35.0625 48.390625 27.6875 48.390625 
Q 23 48.390625 18.546875 47.265625 
Q 14.109375 46.140625 10.015625 43.890625 
L 10.015625 52.203125 
Q 14.9375 54.109375 19.578125 55.046875 
Q 24.21875 56 28.609375 56 
Q 40.484375 56 46.34375 49.84375 
Q 52.203125 43.703125 52.203125 31.203125 
z
" id="DejaVuSans-97"/>
      </defs>
      <g transform="translate(67.165625 255.650574)scale(0.1 -0.1)">
       <use xlink:href="#DejaVuSans-102"/>
       <use x="35.205078" xlink:href="#DejaVuSans-97"/>
       <use x="96.484375" xlink:href="#DejaVuSans-99"/>
       <use x="151.464844" xlink:href="#DejaVuSans-116"/>
       <use x="190.673828" xlink:href="#DejaVuSans-115"/>
       <use x="242.773438" xlink:href="#DejaVuSans-46"/>
       <use x="274.560547" xlink:href="#DejaVuSans-100"/>
       <use x="338.037109" xlink:href="#DejaVuSans-101"/>
       <use x="399.560547" xlink:href="#DejaVuSans-112"/>
       <use x="463.037109" xlink:href="#DejaVuSans-108"/>
       <use x="490.820312" xlink:href="#DejaVuSans-111"/>
       <use x="552.001953" xlink:href="#DejaVuSans-121"/>
      </g>
     </g>
    </g>
    <g id="ytick_4">
     <g id="line2d_23">
      <path clip-path="url(#p5c3f5d7c4f)" d="M 135.285937 243.267097 
L 492.405937 243.267097 
" style="fill:none;stroke:#b0b0b0;stroke-linecap:square;stroke-width:0.8;"/>
     </g>
     <g id="line2d_24">
      <g>
       <use style="stroke:#000000;stroke-width:0.8;" x="135.285937" xlink:href="#mc896c693c3" y="243.267097"/>
      </g>
     </g>
     <g id="text_13">
      <!-- glance.pull -->
      <defs>
       <path d="M 45.40625 27.984375 
Q 45.40625 37.75 41.375 43.109375 
Q 37.359375 48.484375 30.078125 48.484375 
Q 22.859375 48.484375 18.828125 43.109375 
Q 14.796875 37.75 14.796875 27.984375 
Q 14.796875 18.265625 18.828125 12.890625 
Q 22.859375 7.515625 30.078125 7.515625 
Q 37.359375 7.515625 41.375 12.890625 
Q 45.40625 18.265625 45.40625 27.984375 
z
M 54.390625 6.78125 
Q 54.390625 -7.171875 48.1875 -13.984375 
Q 42 -20.796875 29.203125 -20.796875 
Q 24.46875 -20.796875 20.265625 -20.09375 
Q 16.0625 -19.390625 12.109375 -17.921875 
L 12.109375 -9.1875 
Q 16.0625 -11.328125 19.921875 -12.34375 
Q 23.78125 -13.375 27.78125 -13.375 
Q 36.625 -13.375 41.015625 -8.765625 
Q 45.40625 -4.15625 45.40625 5.171875 
L 45.40625 9.625 
Q 42.625 4.78125 38.28125 2.390625 
Q 33.9375 0 27.875 0 
Q 17.828125 0 11.671875 7.65625 
Q 5.515625 15.328125 5.515625 27.984375 
Q 5.515625 40.671875 11.671875 48.328125 
Q 17.828125 56 27.875 56 
Q 33.9375 56 38.28125 53.609375 
Q 42.625 51.21875 45.40625 46.390625 
L 45.40625 54.6875 
L 54.390625 54.6875 
z
" id="DejaVuSans-103"/>
       <path d="M 8.5 21.578125 
L 8.5 54.6875 
L 17.484375 54.6875 
L 17.484375 21.921875 
Q 17.484375 14.15625 20.5 10.265625 
Q 23.53125 6.390625 29.59375 6.390625 
Q 36.859375 6.390625 41.078125 11.03125 
Q 45.3125 15.671875 45.3125 23.6875 
L 45.3125 54.6875 
L 54.296875 54.6875 
L 54.296875 0 
L 45.3125 0 
L 45.3125 8.40625 
Q 42.046875 3.421875 37.71875 1 
Q 33.40625 -1.421875 27.6875 -1.421875 
Q 18.265625 -1.421875 13.375 4.4375 
Q 8.5 10.296875 8.5 21.578125 
z
M 31.109375 56 
z
" id="DejaVuSans-117"/>
      </defs>
      <g transform="translate(73.621875 247.066316)scale(0.1 -0.1)">
       <use xlink:href="#DejaVuSans-103"/>
       <use x="63.476562" xlink:href="#DejaVuSans-108"/>
       <use x="91.259766" xlink:href="#DejaVuSans-97"/>
       <use x="152.539062" xlink:href="#DejaVuSans-110"/>
       <use x="215.917969" xlink:href="#DejaVuSans-99"/>
       <use x="270.898438" xlink:href="#DejaVuSans-101"/>
       <use x="332.421875" xlink:href="#DejaVuSans-46"/>
       <use x="364.208984" xlink:href="#DejaVuSans-112"/>
       <use x="427.685547" xlink:href="#DejaVuSans-117"/>
       <use x="491.064453" xlink:href="#DejaVuSans-108"/>
       <use x="518.847656" xlink:href="#DejaVuSans-108"/>
      </g>
     </g>
    </g>
    <g id="ytick_5">
     <g id="line2d_25">
      <path clip-path="url(#p5c3f5d7c4f)" d="M 135.285937 234.682839 
L 492.405937 234.682839 
" style="fill:none;stroke:#b0b0b0;stroke-linecap:square;stroke-width:0.8;"/>
     </g>
     <g id="line2d_26">
      <g>
       <use style="stroke:#000000;stroke-width:0.8;" x="135.285937" xlink:href="#mc896c693c3" y="234.682839"/>
      </g>
     </g>
     <g id="text_14">
      <!-- glance.config -->
      <g transform="translate(61.2625 238.482057)scale(0.1 -0.1)">
       <use xlink:href="#DejaVuSans-103"/>
       <use x="63.476562" xlink:href="#DejaVuSans-108"/>
       <use x="91.259766" xlink:href="#DejaVuSans-97"/>
       <use x="152.539062" xlink:href="#DejaVuSans-110"/>
       <use x="215.917969" xlink:href="#DejaVuSans-99"/>
       <use x="270.898438" xlink:href="#DejaVuSans-101"/>
       <use x="332.421875" xlink:href="#DejaVuSans-46"/>
       <use x="364.208984" xlink:href="#DejaVuSans-99"/>
       <use x="419.189453" xlink:href="#DejaVuSans-111"/>
       <use x="480.371094" xlink:href="#DejaVuSans-110"/>
       <use x="543.75" xlink:href="#DejaVuSans-102"/>
       <use x="578.955078" xlink:href="#DejaVuSans-105"/>
       <use x="606.738281" xlink:href="#DejaVuSans-103"/>
      </g>
     </g>
    </g>
    <g id="ytick_6">
     <g id="line2d_27">
      <path clip-path="url(#p5c3f5d7c4f)" d="M 135.285937 226.098581 
L 492.405937 226.098581 
" style="fill:none;stroke:#b0b0b0;stroke-linecap:square;stroke-width:0.8;"/>
     </g>
     <g id="line2d_28">
      <g>
       <use style="stroke:#000000;stroke-width:0.8;" x="135.285937" xlink:href="#mc896c693c3" y="226.098581"/>
      </g>
     </g>
     <g id="text_15">
      <!-- glance.register -->
      <defs>
       <path d="M 41.109375 46.296875 
Q 39.59375 47.171875 37.8125 47.578125 
Q 36.03125 48 33.890625 48 
Q 26.265625 48 22.1875 43.046875 
Q 18.109375 38.09375 18.109375 28.8125 
L 18.109375 0 
L 9.078125 0 
L 9.078125 54.6875 
L 18.109375 54.6875 
L 18.109375 46.1875 
Q 20.953125 51.171875 25.484375 53.578125 
Q 30.03125 56 36.53125 56 
Q 37.453125 56 38.578125 55.875 
Q 39.703125 55.765625 41.0625 55.515625 
z
" id="DejaVuSans-114"/>
      </defs>
      <g transform="translate(53.082812 229.897799)scale(0.1 -0.1)">
       <use xlink:href="#DejaVuSans-103"/>
       <use x="63.476562" xlink:href="#DejaVuSans-108"/>
       <use x="91.259766" xlink:href="#DejaVuSans-97"/>
       <use x="152.539062" xlink:href="#DejaVuSans-110"/>
       <use x="215.917969" xlink:href="#DejaVuSans-99"/>
       <use x="270.898438" xlink:href="#DejaVuSans-101"/>
       <use x="332.421875" xlink:href="#DejaVuSans-46"/>
       <use x="364.208984" xlink:href="#DejaVuSans-114"/>
       <use x="405.291016" xlink:href="#DejaVuSans-101"/>
       <use x="466.814453" xlink:href="#DejaVuSans-103"/>
       <use x="530.291016" xlink:href="#DejaVuSans-105"/>
       <use x="558.074219" xlink:href="#DejaVuSans-115"/>
       <use x="610.173828" xlink:href="#DejaVuSans-116"/>
       <use x="649.382812" xlink:href="#DejaVuSans-101"/>
       <use x="710.90625" xlink:href="#DejaVuSans-114"/>
      </g>
     </g>
    </g>
    <g id="ytick_7">
     <g id="line2d_29">
      <path clip-path="url(#p5c3f5d7c4f)" d="M 135.285937 217.514323 
L 492.405937 217.514323 
" style="fill:none;stroke:#b0b0b0;stroke-linecap:square;stroke-width:0.8;"/>
     </g>
     <g id="line2d_30">
      <g>
       <use style="stroke:#000000;stroke-width:0.8;" x="135.285937" xlink:href="#mc896c693c3" y="217.514323"/>
      </g>
     </g>
     <g id="text_16">
      <!-- glance.deploy -->
      <g transform="translate(58.198437 221.313541)scale(0.1 -0.1)">
       <use xlink:href="#DejaVuSans-103"/>
       <use x="63.476562" xlink:href="#DejaVuSans-108"/>
       <use x="91.259766" xlink:href="#DejaVuSans-97"/>
       <use x="152.539062" xlink:href="#DejaVuSans-110"/>
       <use x="215.917969" xlink:href="#DejaVuSans-99"/>
       <use x="270.898438" xlink:href="#DejaVuSans-101"/>
       <use x="332.421875" xlink:href="#DejaVuSans-46"/>
       <use x="364.208984" xlink:href="#DejaVuSans-100"/>
       <use x="427.685547" xlink:href="#DejaVuSans-101"/>
       <use x="489.208984" xlink:href="#DejaVuSans-112"/>
       <use x="552.685547" xlink:href="#DejaVuSans-108"/>
       <use x="580.46875" xlink:href="#DejaVuSans-111"/>
       <use x="641.650391" xlink:href="#DejaVuSans-121"/>
      </g>
     </g>
    </g>
    <g id="ytick_8">
     <g id="line2d_31">
      <path clip-path="url(#p5c3f5d7c4f)" d="M 135.285937 208.930065 
L 492.405937 208.930065 
" style="fill:none;stroke:#b0b0b0;stroke-linecap:square;stroke-width:0.8;"/>
     </g>
     <g id="line2d_32">
      <g>
       <use style="stroke:#000000;stroke-width:0.8;" x="135.285937" xlink:href="#mc896c693c3" y="208.930065"/>
      </g>
     </g>
     <g id="text_17">
      <!-- haproxy.deploy -->
      <defs>
       <path d="M 54.890625 33.015625 
L 54.890625 0 
L 45.90625 0 
L 45.90625 32.71875 
Q 45.90625 40.484375 42.875 44.328125 
Q 39.84375 48.1875 33.796875 48.1875 
Q 26.515625 48.1875 22.3125 43.546875 
Q 18.109375 38.921875 18.109375 30.90625 
L 18.109375 0 
L 9.078125 0 
L 9.078125 75.984375 
L 18.109375 75.984375 
L 18.109375 46.1875 
Q 21.34375 51.125 25.703125 53.5625 
Q 30.078125 56 35.796875 56 
Q 45.21875 56 50.046875 50.171875 
Q 54.890625 44.34375 54.890625 33.015625 
z
" id="DejaVuSans-104"/>
       <path d="M 54.890625 54.6875 
L 35.109375 28.078125 
L 55.90625 0 
L 45.3125 0 
L 29.390625 21.484375 
L 13.484375 0 
L 2.875 0 
L 24.125 28.609375 
L 4.6875 54.6875 
L 15.28125 54.6875 
L 29.78125 35.203125 
L 44.28125 54.6875 
z
" id="DejaVuSans-120"/>
      </defs>
      <g transform="translate(50.590625 212.729283)scale(0.1 -0.1)">
       <use xlink:href="#DejaVuSans-104"/>
       <use x="63.378906" xlink:href="#DejaVuSans-97"/>
       <use x="124.658203" xlink:href="#DejaVuSans-112"/>
       <use x="188.134766" xlink:href="#DejaVuSans-114"/>
       <use x="229.216797" xlink:href="#DejaVuSans-111"/>
       <use x="290.351562" xlink:href="#DejaVuSans-120"/>
       <use x="349.53125" xlink:href="#DejaVuSans-121"/>
       <use x="408.492188" xlink:href="#DejaVuSans-46"/>
       <use x="440.279297" xlink:href="#DejaVuSans-100"/>
       <use x="503.755859" xlink:href="#DejaVuSans-101"/>
       <use x="565.279297" xlink:href="#DejaVuSans-112"/>
       <use x="628.755859" xlink:href="#DejaVuSans-108"/>
       <use x="656.539062" xlink:href="#DejaVuSans-111"/>
       <use x="717.720703" xlink:href="#DejaVuSans-121"/>
      </g>
     </g>
    </g>
    <g id="ytick_9">
     <g id="line2d_33">
      <path clip-path="url(#p5c3f5d7c4f)" d="M 135.285937 200.345806 
L 492.405937 200.345806 
" style="fill:none;stroke:#b0b0b0;stroke-linecap:square;stroke-width:0.8;"/>
     </g>
     <g id="line2d_34">
      <g>
       <use style="stroke:#000000;stroke-width:0.8;" x="135.285937" xlink:href="#mc896c693c3" y="200.345806"/>
      </g>
     </g>
     <g id="text_18">
      <!-- keystone.pull -->
      <g transform="translate(61.26875 204.145025)scale(0.1 -0.1)">
       <use xlink:href="#DejaVuSans-107"/>
       <use x="57.863281" xlink:href="#DejaVuSans-101"/>
       <use x="119.386719" xlink:href="#DejaVuSans-121"/>
       <use x="178.566406" xlink:href="#DejaVuSans-115"/>
       <use x="230.666016" xlink:href="#DejaVuSans-116"/>
       <use x="269.875" xlink:href="#DejaVuSans-111"/>
       <use x="331.056641" xlink:href="#DejaVuSans-110"/>
       <use x="394.435547" xlink:href="#DejaVuSans-101"/>
       <use x="455.958984" xlink:href="#DejaVuSans-46"/>
       <use x="487.746094" xlink:href="#DejaVuSans-112"/>
       <use x="551.222656" xlink:href="#DejaVuSans-117"/>
       <use x="614.601562" xlink:href="#DejaVuSans-108"/>
       <use x="642.384766" xlink:href="#DejaVuSans-108"/>
      </g>
     </g>
    </g>
    <g id="ytick_10">
     <g id="line2d_35">
      <path clip-path="url(#p5c3f5d7c4f)" d="M 135.285937 191.761548 
L 492.405937 191.761548 
" style="fill:none;stroke:#b0b0b0;stroke-linecap:square;stroke-width:0.8;"/>
     </g>
     <g id="line2d_36">
      <g>
       <use style="stroke:#000000;stroke-width:0.8;" x="135.285937" xlink:href="#mc896c693c3" y="191.761548"/>
      </g>
     </g>
     <g id="text_19">
      <!-- keystone.deploy -->
      <g transform="translate(45.845312 195.560767)scale(0.1 -0.1)">
       <use xlink:href="#DejaVuSans-107"/>
       <use x="57.863281" xlink:href="#DejaVuSans-101"/>
       <use x="119.386719" xlink:href="#DejaVuSans-121"/>
       <use x="178.566406" xlink:href="#DejaVuSans-115"/>
       <use x="230.666016" xlink:href="#DejaVuSans-116"/>
       <use x="269.875" xlink:href="#DejaVuSans-111"/>
       <use x="331.056641" xlink:href="#DejaVuSans-110"/>
       <use x="394.435547" xlink:href="#DejaVuSans-101"/>
       <use x="455.958984" xlink:href="#DejaVuSans-46"/>
       <use x="487.746094" xlink:href="#DejaVuSans-100"/>
       <use x="551.222656" xlink:href="#DejaVuSans-101"/>
       <use x="612.746094" xlink:href="#DejaVuSans-112"/>
       <use x="676.222656" xlink:href="#DejaVuSans-108"/>
       <use x="704.005859" xlink:href="#DejaVuSans-111"/>
       <use x="765.1875" xlink:href="#DejaVuSans-121"/>
      </g>
     </g>
    </g>
    <g id="ytick_11">
     <g id="line2d_37">
      <path clip-path="url(#p5c3f5d7c4f)" d="M 135.285937 183.17729 
L 492.405937 183.17729 
" style="fill:none;stroke:#b0b0b0;stroke-linecap:square;stroke-width:0.8;"/>
     </g>
     <g id="line2d_38">
      <g>
       <use style="stroke:#000000;stroke-width:0.8;" x="135.285937" xlink:href="#mc896c693c3" y="183.17729"/>
      </g>
     </g>
     <g id="text_20">
      <!-- mariadb.config -->
      <g transform="translate(52.923437 186.976509)scale(0.1 -0.1)">
       <use xlink:href="#DejaVuSans-109"/>
       <use x="97.412109" xlink:href="#DejaVuSans-97"/>
       <use x="158.691406" xlink:href="#DejaVuSans-114"/>
       <use x="199.804688" xlink:href="#DejaVuSans-105"/>
       <use x="227.587891" xlink:href="#DejaVuSans-97"/>
       <use x="288.867188" xlink:href="#DejaVuSans-100"/>
       <use x="352.34375" xlink:href="#DejaVuSans-98"/>
       <use x="415.820312" xlink:href="#DejaVuSans-46"/>
       <use x="447.607422" xlink:href="#DejaVuSans-99"/>
       <use x="502.587891" xlink:href="#DejaVuSans-111"/>
       <use x="563.769531" xlink:href="#DejaVuSans-110"/>
       <use x="627.148438" xlink:href="#DejaVuSans-102"/>
       <use x="662.353516" xlink:href="#DejaVuSans-105"/>
       <use x="690.136719" xlink:href="#DejaVuSans-103"/>
      </g>
     </g>
    </g>
    <g id="ytick_12">
     <g id="line2d_39">
      <path clip-path="url(#p5c3f5d7c4f)" d="M 135.285937 174.593032 
L 492.405937 174.593032 
" style="fill:none;stroke:#b0b0b0;stroke-linecap:square;stroke-width:0.8;"/>
     </g>
     <g id="line2d_40">
      <g>
       <use style="stroke:#000000;stroke-width:0.8;" x="135.285937" xlink:href="#mc896c693c3" y="174.593032"/>
      </g>
     </g>
     <g id="text_21">
      <!-- mariadb.pull -->
      <g transform="translate(65.282812 178.392251)scale(0.1 -0.1)">
       <use xlink:href="#DejaVuSans-109"/>
       <use x="97.412109" xlink:href="#DejaVuSans-97"/>
       <use x="158.691406" xlink:href="#DejaVuSans-114"/>
       <use x="199.804688" xlink:href="#DejaVuSans-105"/>
       <use x="227.587891" xlink:href="#DejaVuSans-97"/>
       <use x="288.867188" xlink:href="#DejaVuSans-100"/>
       <use x="352.34375" xlink:href="#DejaVuSans-98"/>
       <use x="415.820312" xlink:href="#DejaVuSans-46"/>
       <use x="447.607422" xlink:href="#DejaVuSans-112"/>
       <use x="511.083984" xlink:href="#DejaVuSans-117"/>
       <use x="574.462891" xlink:href="#DejaVuSans-108"/>
       <use x="602.246094" xlink:href="#DejaVuSans-108"/>
      </g>
     </g>
    </g>
    <g id="ytick_13">
     <g id="line2d_41">
      <path clip-path="url(#p5c3f5d7c4f)" d="M 135.285937 166.008774 
L 492.405937 166.008774 
" style="fill:none;stroke:#b0b0b0;stroke-linecap:square;stroke-width:0.8;"/>
     </g>
     <g id="line2d_42">
      <g>
       <use style="stroke:#000000;stroke-width:0.8;" x="135.285937" xlink:href="#mc896c693c3" y="166.008774"/>
      </g>
     </g>
     <g id="text_22">
      <!-- mariadb.bootstrap -->
      <g transform="translate(35.301562 169.807993)scale(0.1 -0.1)">
       <use xlink:href="#DejaVuSans-109"/>
       <use x="97.412109" xlink:href="#DejaVuSans-97"/>
       <use x="158.691406" xlink:href="#DejaVuSans-114"/>
       <use x="199.804688" xlink:href="#DejaVuSans-105"/>
       <use x="227.587891" xlink:href="#DejaVuSans-97"/>
       <use x="288.867188" xlink:href="#DejaVuSans-100"/>
       <use x="352.34375" xlink:href="#DejaVuSans-98"/>
       <use x="415.820312" xlink:href="#DejaVuSans-46"/>
       <use x="447.607422" xlink:href="#DejaVuSans-98"/>
       <use x="511.083984" xlink:href="#DejaVuSans-111"/>
       <use x="572.265625" xlink:href="#DejaVuSans-111"/>
       <use x="633.447266" xlink:href="#DejaVuSans-116"/>
       <use x="672.65625" xlink:href="#DejaVuSans-115"/>
       <use x="724.755859" xlink:href="#DejaVuSans-116"/>
       <use x="763.964844" xlink:href="#DejaVuSans-114"/>
       <use x="805.078125" xlink:href="#DejaVuSans-97"/>
       <use x="866.357422" xlink:href="#DejaVuSans-112"/>
      </g>
     </g>
    </g>
    <g id="ytick_14">
     <g id="line2d_43">
      <path clip-path="url(#p5c3f5d7c4f)" d="M 135.285937 157.424516 
L 492.405937 157.424516 
" style="fill:none;stroke:#b0b0b0;stroke-linecap:square;stroke-width:0.8;"/>
     </g>
     <g id="line2d_44">
      <g>
       <use style="stroke:#000000;stroke-width:0.8;" x="135.285937" xlink:href="#mc896c693c3" y="157.424516"/>
      </g>
     </g>
     <g id="text_23">
      <!-- mariadb.restart -->
      <g transform="translate(49.975 161.223735)scale(0.1 -0.1)">
       <use xlink:href="#DejaVuSans-109"/>
       <use x="97.412109" xlink:href="#DejaVuSans-97"/>
       <use x="158.691406" xlink:href="#DejaVuSans-114"/>
       <use x="199.804688" xlink:href="#DejaVuSans-105"/>
       <use x="227.587891" xlink:href="#DejaVuSans-97"/>
       <use x="288.867188" xlink:href="#DejaVuSans-100"/>
       <use x="352.34375" xlink:href="#DejaVuSans-98"/>
       <use x="415.820312" xlink:href="#DejaVuSans-46"/>
       <use x="447.607422" xlink:href="#DejaVuSans-114"/>
       <use x="488.689453" xlink:href="#DejaVuSans-101"/>
       <use x="550.212891" xlink:href="#DejaVuSans-115"/>
       <use x="602.3125" xlink:href="#DejaVuSans-116"/>
       <use x="641.521484" xlink:href="#DejaVuSans-97"/>
       <use x="702.800781" xlink:href="#DejaVuSans-114"/>
       <use x="743.914062" xlink:href="#DejaVuSans-116"/>
      </g>
     </g>
    </g>
    <g id="ytick_15">
     <g id="line2d_45">
      <path clip-path="url(#p5c3f5d7c4f)" d="M 135.285937 148.840258 
L 492.405937 148.840258 
" style="fill:none;stroke:#b0b0b0;stroke-linecap:square;stroke-width:0.8;"/>
     </g>
     <g id="line2d_46">
      <g>
       <use style="stroke:#000000;stroke-width:0.8;" x="135.285937" xlink:href="#mc896c693c3" y="148.840258"/>
      </g>
     </g>
     <g id="text_24">
      <!-- mariadb.register -->
      <g transform="translate(44.74375 152.639477)scale(0.1 -0.1)">
       <use xlink:href="#DejaVuSans-109"/>
       <use x="97.412109" xlink:href="#DejaVuSans-97"/>
       <use x="158.691406" xlink:href="#DejaVuSans-114"/>
       <use x="199.804688" xlink:href="#DejaVuSans-105"/>
       <use x="227.587891" xlink:href="#DejaVuSans-97"/>
       <use x="288.867188" xlink:href="#DejaVuSans-100"/>
       <use x="352.34375" xlink:href="#DejaVuSans-98"/>
       <use x="415.820312" xlink:href="#DejaVuSans-46"/>
       <use x="447.607422" xlink:href="#DejaVuSans-114"/>
       <use x="488.689453" xlink:href="#DejaVuSans-101"/>
       <use x="550.212891" xlink:href="#DejaVuSans-103"/>
       <use x="613.689453" xlink:href="#DejaVuSans-105"/>
       <use x="641.472656" xlink:href="#DejaVuSans-115"/>
       <use x="693.572266" xlink:href="#DejaVuSans-116"/>
       <use x="732.78125" xlink:href="#DejaVuSans-101"/>
       <use x="794.304688" xlink:href="#DejaVuSans-114"/>
      </g>
     </g>
    </g>
    <g id="ytick_16">
     <g id="line2d_47">
      <path clip-path="url(#p5c3f5d7c4f)" d="M 135.285937 140.256 
L 492.405937 140.256 
" style="fill:none;stroke:#b0b0b0;stroke-linecap:square;stroke-width:0.8;"/>
     </g>
     <g id="line2d_48">
      <g>
       <use style="stroke:#000000;stroke-width:0.8;" x="135.285937" xlink:href="#mc896c693c3" y="140.256"/>
      </g>
     </g>
     <g id="text_25">
      <!-- mariadb.check -->
      <g transform="translate(54.246875 144.055219)scale(0.1 -0.1)">
       <use xlink:href="#DejaVuSans-109"/>
       <use x="97.412109" xlink:href="#DejaVuSans-97"/>
       <use x="158.691406" xlink:href="#DejaVuSans-114"/>
       <use x="199.804688" xlink:href="#DejaVuSans-105"/>
       <use x="227.587891" xlink:href="#DejaVuSans-97"/>
       <use x="288.867188" xlink:href="#DejaVuSans-100"/>
       <use x="352.34375" xlink:href="#DejaVuSans-98"/>
       <use x="415.820312" xlink:href="#DejaVuSans-46"/>
       <use x="447.607422" xlink:href="#DejaVuSans-99"/>
       <use x="502.587891" xlink:href="#DejaVuSans-104"/>
       <use x="565.966797" xlink:href="#DejaVuSans-101"/>
       <use x="627.490234" xlink:href="#DejaVuSans-99"/>
       <use x="682.470703" xlink:href="#DejaVuSans-107"/>
      </g>
     </g>
    </g>
    <g id="ytick_17">
     <g id="line2d_49">
      <path clip-path="url(#p5c3f5d7c4f)" d="M 135.285937 131.671742 
L 492.405937 131.671742 
" style="fill:none;stroke:#b0b0b0;stroke-linecap:square;stroke-width:0.8;"/>
     </g>
     <g id="line2d_50">
      <g>
       <use style="stroke:#000000;stroke-width:0.8;" x="135.285937" xlink:href="#mc896c693c3" y="131.671742"/>
      </g>
     </g>
     <g id="text_26">
      <!-- memcached.deploy -->
      <g transform="translate(29.84375 135.470961)scale(0.1 -0.1)">
       <use xlink:href="#DejaVuSans-109"/>
       <use x="97.412109" xlink:href="#DejaVuSans-101"/>
       <use x="158.935547" xlink:href="#DejaVuSans-109"/>
       <use x="256.347656" xlink:href="#DejaVuSans-99"/>
       <use x="311.328125" xlink:href="#DejaVuSans-97"/>
       <use x="372.607422" xlink:href="#DejaVuSans-99"/>
       <use x="427.587891" xlink:href="#DejaVuSans-104"/>
       <use x="490.966797" xlink:href="#DejaVuSans-101"/>
       <use x="552.490234" xlink:href="#DejaVuSans-100"/>
       <use x="615.966797" xlink:href="#DejaVuSans-46"/>
       <use x="647.753906" xlink:href="#DejaVuSans-100"/>
       <use x="711.230469" xlink:href="#DejaVuSans-101"/>
       <use x="772.753906" xlink:href="#DejaVuSans-112"/>
       <use x="836.230469" xlink:href="#DejaVuSans-108"/>
       <use x="864.013672" xlink:href="#DejaVuSans-111"/>
       <use x="925.195312" xlink:href="#DejaVuSans-121"/>
      </g>
     </g>
    </g>
    <g id="ytick_18">
     <g id="line2d_51">
      <path clip-path="url(#p5c3f5d7c4f)" d="M 135.285937 123.087484 
L 492.405937 123.087484 
" style="fill:none;stroke:#b0b0b0;stroke-linecap:square;stroke-width:0.8;"/>
     </g>
     <g id="line2d_52">
      <g>
       <use style="stroke:#000000;stroke-width:0.8;" x="135.285937" xlink:href="#mc896c693c3" y="123.087484"/>
      </g>
     </g>
     <g id="text_27">
      <!-- neutron.pull -->
      <g transform="translate(67.553125 126.886703)scale(0.1 -0.1)">
       <use xlink:href="#DejaVuSans-110"/>
       <use x="63.378906" xlink:href="#DejaVuSans-101"/>
       <use x="124.902344" xlink:href="#DejaVuSans-117"/>
       <use x="188.28125" xlink:href="#DejaVuSans-116"/>
       <use x="227.490234" xlink:href="#DejaVuSans-114"/>
       <use x="268.572266" xlink:href="#DejaVuSans-111"/>
       <use x="329.753906" xlink:href="#DejaVuSans-110"/>
       <use x="393.132812" xlink:href="#DejaVuSans-46"/>
       <use x="424.919922" xlink:href="#DejaVuSans-112"/>
       <use x="488.396484" xlink:href="#DejaVuSans-117"/>
       <use x="551.775391" xlink:href="#DejaVuSans-108"/>
       <use x="579.558594" xlink:href="#DejaVuSans-108"/>
      </g>
     </g>
    </g>
    <g id="ytick_19">
     <g id="line2d_53">
      <path clip-path="url(#p5c3f5d7c4f)" d="M 135.285937 114.503226 
L 492.405937 114.503226 
" style="fill:none;stroke:#b0b0b0;stroke-linecap:square;stroke-width:0.8;"/>
     </g>
     <g id="line2d_54">
      <g>
       <use style="stroke:#000000;stroke-width:0.8;" x="135.285937" xlink:href="#mc896c693c3" y="114.503226"/>
      </g>
     </g>
     <g id="text_28">
      <!-- neutron.config -->
      <g transform="translate(55.19375 118.302445)scale(0.1 -0.1)">
       <use xlink:href="#DejaVuSans-110"/>
       <use x="63.378906" xlink:href="#DejaVuSans-101"/>
       <use x="124.902344" xlink:href="#DejaVuSans-117"/>
       <use x="188.28125" xlink:href="#DejaVuSans-116"/>
       <use x="227.490234" xlink:href="#DejaVuSans-114"/>
       <use x="268.572266" xlink:href="#DejaVuSans-111"/>
       <use x="329.753906" xlink:href="#DejaVuSans-110"/>
       <use x="393.132812" xlink:href="#DejaVuSans-46"/>
       <use x="424.919922" xlink:href="#DejaVuSans-99"/>
       <use x="479.900391" xlink:href="#DejaVuSans-111"/>
       <use x="541.082031" xlink:href="#DejaVuSans-110"/>
       <use x="604.460938" xlink:href="#DejaVuSans-102"/>
       <use x="639.666016" xlink:href="#DejaVuSans-105"/>
       <use x="667.449219" xlink:href="#DejaVuSans-103"/>
      </g>
     </g>
    </g>
    <g id="ytick_20">
     <g id="line2d_55">
      <path clip-path="url(#p5c3f5d7c4f)" d="M 135.285937 105.918968 
L 492.405937 105.918968 
" style="fill:none;stroke:#b0b0b0;stroke-linecap:square;stroke-width:0.8;"/>
     </g>
     <g id="line2d_56">
      <g>
       <use style="stroke:#000000;stroke-width:0.8;" x="135.285937" xlink:href="#mc896c693c3" y="105.918968"/>
      </g>
     </g>
     <g id="text_29">
      <!-- neutron.register -->
      <g transform="translate(47.014062 109.718186)scale(0.1 -0.1)">
       <use xlink:href="#DejaVuSans-110"/>
       <use x="63.378906" xlink:href="#DejaVuSans-101"/>
       <use x="124.902344" xlink:href="#DejaVuSans-117"/>
       <use x="188.28125" xlink:href="#DejaVuSans-116"/>
       <use x="227.490234" xlink:href="#DejaVuSans-114"/>
       <use x="268.572266" xlink:href="#DejaVuSans-111"/>
       <use x="329.753906" xlink:href="#DejaVuSans-110"/>
       <use x="393.132812" xlink:href="#DejaVuSans-46"/>
       <use x="424.919922" xlink:href="#DejaVuSans-114"/>
       <use x="466.001953" xlink:href="#DejaVuSans-101"/>
       <use x="527.525391" xlink:href="#DejaVuSans-103"/>
       <use x="591.001953" xlink:href="#DejaVuSans-105"/>
       <use x="618.785156" xlink:href="#DejaVuSans-115"/>
       <use x="670.884766" xlink:href="#DejaVuSans-116"/>
       <use x="710.09375" xlink:href="#DejaVuSans-101"/>
       <use x="771.617188" xlink:href="#DejaVuSans-114"/>
      </g>
     </g>
    </g>
    <g id="ytick_21">
     <g id="line2d_57">
      <path clip-path="url(#p5c3f5d7c4f)" d="M 135.285937 97.33471 
L 492.405937 97.33471 
" style="fill:none;stroke:#b0b0b0;stroke-linecap:square;stroke-width:0.8;"/>
     </g>
     <g id="line2d_58">
      <g>
       <use style="stroke:#000000;stroke-width:0.8;" x="135.285937" xlink:href="#mc896c693c3" y="97.33471"/>
      </g>
     </g>
     <g id="text_30">
      <!-- neutron.deploy -->
      <g transform="translate(52.129687 101.133928)scale(0.1 -0.1)">
       <use xlink:href="#DejaVuSans-110"/>
       <use x="63.378906" xlink:href="#DejaVuSans-101"/>
       <use x="124.902344" xlink:href="#DejaVuSans-117"/>
       <use x="188.28125" xlink:href="#DejaVuSans-116"/>
       <use x="227.490234" xlink:href="#DejaVuSans-114"/>
       <use x="268.572266" xlink:href="#DejaVuSans-111"/>
       <use x="329.753906" xlink:href="#DejaVuSans-110"/>
       <use x="393.132812" xlink:href="#DejaVuSans-46"/>
       <use x="424.919922" xlink:href="#DejaVuSans-100"/>
       <use x="488.396484" xlink:href="#DejaVuSans-101"/>
       <use x="549.919922" xlink:href="#DejaVuSans-112"/>
       <use x="613.396484" xlink:href="#DejaVuSans-108"/>
       <use x="641.179688" xlink:href="#DejaVuSans-111"/>
       <use x="702.361328" xlink:href="#DejaVuSans-121"/>
      </g>
     </g>
    </g>
    <g id="ytick_22">
     <g id="line2d_59">
      <path clip-path="url(#p5c3f5d7c4f)" d="M 135.285937 88.750452 
L 492.405937 88.750452 
" style="fill:none;stroke:#b0b0b0;stroke-linecap:square;stroke-width:0.8;"/>
     </g>
     <g id="line2d_60">
      <g>
       <use style="stroke:#000000;stroke-width:0.8;" x="135.285937" xlink:href="#mc896c693c3" y="88.750452"/>
      </g>
     </g>
     <g id="text_31">
      <!-- nova.pull -->
      <defs>
       <path d="M 2.984375 54.6875 
L 12.5 54.6875 
L 29.59375 8.796875 
L 46.6875 54.6875 
L 56.203125 54.6875 
L 35.6875 0 
L 23.484375 0 
z
" id="DejaVuSans-118"/>
      </defs>
      <g transform="translate(82.3625 92.54967)scale(0.1 -0.1)">
       <use xlink:href="#DejaVuSans-110"/>
       <use x="63.378906" xlink:href="#DejaVuSans-111"/>
       <use x="124.560547" xlink:href="#DejaVuSans-118"/>
       <use x="183.740234" xlink:href="#DejaVuSans-97"/>
       <use x="245.019531" xlink:href="#DejaVuSans-46"/>
       <use x="276.806641" xlink:href="#DejaVuSans-112"/>
       <use x="340.283203" xlink:href="#DejaVuSans-117"/>
       <use x="403.662109" xlink:href="#DejaVuSans-108"/>
       <use x="431.445312" xlink:href="#DejaVuSans-108"/>
      </g>
     </g>
    </g>
    <g id="ytick_23">
     <g id="line2d_61">
      <path clip-path="url(#p5c3f5d7c4f)" d="M 135.285937 80.166194 
L 492.405937 80.166194 
" style="fill:none;stroke:#b0b0b0;stroke-linecap:square;stroke-width:0.8;"/>
     </g>
     <g id="line2d_62">
      <g>
       <use style="stroke:#000000;stroke-width:0.8;" x="135.285937" xlink:href="#mc896c693c3" y="80.166194"/>
      </g>
     </g>
     <g id="text_32">
      <!-- nova.config -->
      <g transform="translate(70.003125 83.965412)scale(0.1 -0.1)">
       <use xlink:href="#DejaVuSans-110"/>
       <use x="63.378906" xlink:href="#DejaVuSans-111"/>
       <use x="124.560547" xlink:href="#DejaVuSans-118"/>
       <use x="183.740234" xlink:href="#DejaVuSans-97"/>
       <use x="245.019531" xlink:href="#DejaVuSans-46"/>
       <use x="276.806641" xlink:href="#DejaVuSans-99"/>
       <use x="331.787109" xlink:href="#DejaVuSans-111"/>
       <use x="392.96875" xlink:href="#DejaVuSans-110"/>
       <use x="456.347656" xlink:href="#DejaVuSans-102"/>
       <use x="491.552734" xlink:href="#DejaVuSans-105"/>
       <use x="519.335938" xlink:href="#DejaVuSans-103"/>
      </g>
     </g>
    </g>
    <g id="ytick_24">
     <g id="line2d_63">
      <path clip-path="url(#p5c3f5d7c4f)" d="M 135.285937 71.581935 
L 492.405937 71.581935 
" style="fill:none;stroke:#b0b0b0;stroke-linecap:square;stroke-width:0.8;"/>
     </g>
     <g id="line2d_64">
      <g>
       <use style="stroke:#000000;stroke-width:0.8;" x="135.285937" xlink:href="#mc896c693c3" y="71.581935"/>
      </g>
     </g>
     <g id="text_33">
      <!-- nova.create_db -->
      <g transform="translate(50.946875 75.381154)scale(0.1 -0.1)">
       <use xlink:href="#DejaVuSans-110"/>
       <use x="63.378906" xlink:href="#DejaVuSans-111"/>
       <use x="124.560547" xlink:href="#DejaVuSans-118"/>
       <use x="183.740234" xlink:href="#DejaVuSans-97"/>
       <use x="245.019531" xlink:href="#DejaVuSans-46"/>
       <use x="276.806641" xlink:href="#DejaVuSans-99"/>
       <use x="331.787109" xlink:href="#DejaVuSans-114"/>
       <use x="372.869141" xlink:href="#DejaVuSans-101"/>
       <use x="434.392578" xlink:href="#DejaVuSans-97"/>
       <use x="495.671875" xlink:href="#DejaVuSans-116"/>
       <use x="534.880859" xlink:href="#DejaVuSans-101"/>
       <use x="596.404297" xlink:href="#DejaVuSans-95"/>
       <use x="646.404297" xlink:href="#DejaVuSans-100"/>
       <use x="709.880859" xlink:href="#DejaVuSans-98"/>
      </g>
     </g>
    </g>
    <g id="ytick_25">
     <g id="line2d_65">
      <path clip-path="url(#p5c3f5d7c4f)" d="M 135.285937 62.997677 
L 492.405937 62.997677 
" style="fill:none;stroke:#b0b0b0;stroke-linecap:square;stroke-width:0.8;"/>
     </g>
     <g id="line2d_66">
      <g>
       <use style="stroke:#000000;stroke-width:0.8;" x="135.285937" xlink:href="#mc896c693c3" y="62.997677"/>
      </g>
     </g>
     <g id="text_34">
      <!-- nova.upgrade_api_db -->
      <g transform="translate(20.878125 66.796896)scale(0.1 -0.1)">
       <use xlink:href="#DejaVuSans-110"/>
       <use x="63.378906" xlink:href="#DejaVuSans-111"/>
       <use x="124.560547" xlink:href="#DejaVuSans-118"/>
       <use x="183.740234" xlink:href="#DejaVuSans-97"/>
       <use x="245.019531" xlink:href="#DejaVuSans-46"/>
       <use x="276.806641" xlink:href="#DejaVuSans-117"/>
       <use x="340.185547" xlink:href="#DejaVuSans-112"/>
       <use x="403.662109" xlink:href="#DejaVuSans-103"/>
       <use x="467.138672" xlink:href="#DejaVuSans-114"/>
       <use x="508.251953" xlink:href="#DejaVuSans-97"/>
       <use x="569.53125" xlink:href="#DejaVuSans-100"/>
       <use x="633.007812" xlink:href="#DejaVuSans-101"/>
       <use x="694.53125" xlink:href="#DejaVuSans-95"/>
       <use x="744.53125" xlink:href="#DejaVuSans-97"/>
       <use x="805.810547" xlink:href="#DejaVuSans-112"/>
       <use x="869.287109" xlink:href="#DejaVuSans-105"/>
       <use x="897.070312" xlink:href="#DejaVuSans-95"/>
       <use x="947.070312" xlink:href="#DejaVuSans-100"/>
       <use x="1010.546875" xlink:href="#DejaVuSans-98"/>
      </g>
     </g>
    </g>
    <g id="ytick_26">
     <g id="line2d_67">
      <path clip-path="url(#p5c3f5d7c4f)" d="M 135.285937 54.413419 
L 492.405937 54.413419 
" style="fill:none;stroke:#b0b0b0;stroke-linecap:square;stroke-width:0.8;"/>
     </g>
     <g id="line2d_68">
      <g>
       <use style="stroke:#000000;stroke-width:0.8;" x="135.285937" xlink:href="#mc896c693c3" y="54.413419"/>
      </g>
     </g>
     <g id="text_35">
      <!-- nova.upgrade_db -->
      <g transform="translate(41.132812 58.212638)scale(0.1 -0.1)">
       <use xlink:href="#DejaVuSans-110"/>
       <use x="63.378906" xlink:href="#DejaVuSans-111"/>
       <use x="124.560547" xlink:href="#DejaVuSans-118"/>
       <use x="183.740234" xlink:href="#DejaVuSans-97"/>
       <use x="245.019531" xlink:href="#DejaVuSans-46"/>
       <use x="276.806641" xlink:href="#DejaVuSans-117"/>
       <use x="340.185547" xlink:href="#DejaVuSans-112"/>
       <use x="403.662109" xlink:href="#DejaVuSans-103"/>
       <use x="467.138672" xlink:href="#DejaVuSans-114"/>
       <use x="508.251953" xlink:href="#DejaVuSans-97"/>
       <use x="569.53125" xlink:href="#DejaVuSans-100"/>
       <use x="633.007812" xlink:href="#DejaVuSans-101"/>
       <use x="694.53125" xlink:href="#DejaVuSans-95"/>
       <use x="744.53125" xlink:href="#DejaVuSans-100"/>
       <use x="808.007812" xlink:href="#DejaVuSans-98"/>
      </g>
     </g>
    </g>
    <g id="ytick_27">
     <g id="line2d_69">
      <path clip-path="url(#p5c3f5d7c4f)" d="M 135.285937 45.829161 
L 492.405937 45.829161 
" style="fill:none;stroke:#b0b0b0;stroke-linecap:square;stroke-width:0.8;"/>
     </g>
     <g id="line2d_70">
      <g>
       <use style="stroke:#000000;stroke-width:0.8;" x="135.285937" xlink:href="#mc896c693c3" y="45.829161"/>
      </g>
     </g>
     <g id="text_36">
      <!-- nova.restart -->
      <g transform="translate(67.054687 49.62838)scale(0.1 -0.1)">
       <use xlink:href="#DejaVuSans-110"/>
       <use x="63.378906" xlink:href="#DejaVuSans-111"/>
       <use x="124.560547" xlink:href="#DejaVuSans-118"/>
       <use x="183.740234" xlink:href="#DejaVuSans-97"/>
       <use x="245.019531" xlink:href="#DejaVuSans-46"/>
       <use x="276.806641" xlink:href="#DejaVuSans-114"/>
       <use x="317.888672" xlink:href="#DejaVuSans-101"/>
       <use x="379.412109" xlink:href="#DejaVuSans-115"/>
       <use x="431.511719" xlink:href="#DejaVuSans-116"/>
       <use x="470.720703" xlink:href="#DejaVuSans-97"/>
       <use x="532" xlink:href="#DejaVuSans-114"/>
       <use x="573.113281" xlink:href="#DejaVuSans-116"/>
      </g>
     </g>
    </g>
    <g id="ytick_28">
     <g id="line2d_71">
      <path clip-path="url(#p5c3f5d7c4f)" d="M 135.285937 37.244903 
L 492.405937 37.244903 
" style="fill:none;stroke:#b0b0b0;stroke-linecap:square;stroke-width:0.8;"/>
     </g>
     <g id="line2d_72">
      <g>
       <use style="stroke:#000000;stroke-width:0.8;" x="135.285937" xlink:href="#mc896c693c3" y="37.244903"/>
      </g>
     </g>
     <g id="text_37">
      <!-- nova.register -->
      <g transform="translate(61.823437 41.044122)scale(0.1 -0.1)">
       <use xlink:href="#DejaVuSans-110"/>
       <use x="63.378906" xlink:href="#DejaVuSans-111"/>
       <use x="124.560547" xlink:href="#DejaVuSans-118"/>
       <use x="183.740234" xlink:href="#DejaVuSans-97"/>
       <use x="245.019531" xlink:href="#DejaVuSans-46"/>
       <use x="276.806641" xlink:href="#DejaVuSans-114"/>
       <use x="317.888672" xlink:href="#DejaVuSans-101"/>
       <use x="379.412109" xlink:href="#DejaVuSans-103"/>
       <use x="442.888672" xlink:href="#DejaVuSans-105"/>
       <use x="470.671875" xlink:href="#DejaVuSans-115"/>
       <use x="522.771484" xlink:href="#DejaVuSans-116"/>
       <use x="561.980469" xlink:href="#DejaVuSans-101"/>
       <use x="623.503906" xlink:href="#DejaVuSans-114"/>
      </g>
     </g>
    </g>
    <g id="ytick_29">
     <g id="line2d_73">
      <path clip-path="url(#p5c3f5d7c4f)" d="M 135.285937 28.660645 
L 492.405937 28.660645 
" style="fill:none;stroke:#b0b0b0;stroke-linecap:square;stroke-width:0.8;"/>
     </g>
     <g id="line2d_74">
      <g>
       <use style="stroke:#000000;stroke-width:0.8;" x="135.285937" xlink:href="#mc896c693c3" y="28.660645"/>
      </g>
     </g>
     <g id="text_38">
      <!-- nova.cell_setup -->
      <g transform="translate(50.428125 32.459864)scale(0.1 -0.1)">
       <use xlink:href="#DejaVuSans-110"/>
       <use x="63.378906" xlink:href="#DejaVuSans-111"/>
       <use x="124.560547" xlink:href="#DejaVuSans-118"/>
       <use x="183.740234" xlink:href="#DejaVuSans-97"/>
       <use x="245.019531" xlink:href="#DejaVuSans-46"/>
       <use x="276.806641" xlink:href="#DejaVuSans-99"/>
       <use x="331.787109" xlink:href="#DejaVuSans-101"/>
       <use x="393.310547" xlink:href="#DejaVuSans-108"/>
       <use x="421.09375" xlink:href="#DejaVuSans-108"/>
       <use x="448.876953" xlink:href="#DejaVuSans-95"/>
       <use x="498.876953" xlink:href="#DejaVuSans-115"/>
       <use x="550.976562" xlink:href="#DejaVuSans-101"/>
       <use x="612.5" xlink:href="#DejaVuSans-116"/>
       <use x="651.708984" xlink:href="#DejaVuSans-117"/>
       <use x="715.087891" xlink:href="#DejaVuSans-112"/>
      </g>
     </g>
    </g>
    <g id="ytick_30">
     <g id="line2d_75">
      <path clip-path="url(#p5c3f5d7c4f)" d="M 135.285937 20.076387 
L 492.405937 20.076387 
" style="fill:none;stroke:#b0b0b0;stroke-linecap:square;stroke-width:0.8;"/>
     </g>
     <g id="line2d_76">
      <g>
       <use style="stroke:#000000;stroke-width:0.8;" x="135.285937" xlink:href="#mc896c693c3" y="20.076387"/>
      </g>
     </g>
     <g id="text_39">
      <!-- openvswitch.deploy -->
      <defs>
       <path d="M 4.203125 54.6875 
L 13.1875 54.6875 
L 24.421875 12.015625 
L 35.59375 54.6875 
L 46.1875 54.6875 
L 57.421875 12.015625 
L 68.609375 54.6875 
L 77.59375 54.6875 
L 63.28125 0 
L 52.6875 0 
L 40.921875 44.828125 
L 29.109375 0 
L 18.5 0 
z
" id="DejaVuSans-119"/>
      </defs>
      <g transform="translate(28.64375 23.875606)scale(0.1 -0.1)">
       <use xlink:href="#DejaVuSans-111"/>
       <use x="61.181641" xlink:href="#DejaVuSans-112"/>
       <use x="124.658203" xlink:href="#DejaVuSans-101"/>
       <use x="186.181641" xlink:href="#DejaVuSans-110"/>
       <use x="249.560547" xlink:href="#DejaVuSans-118"/>
       <use x="308.740234" xlink:href="#DejaVuSans-115"/>
       <use x="360.839844" xlink:href="#DejaVuSans-119"/>
       <use x="442.626953" xlink:href="#DejaVuSans-105"/>
       <use x="470.410156" xlink:href="#DejaVuSans-116"/>
       <use x="509.619141" xlink:href="#DejaVuSans-99"/>
       <use x="564.599609" xlink:href="#DejaVuSans-104"/>
       <use x="627.978516" xlink:href="#DejaVuSans-46"/>
       <use x="659.765625" xlink:href="#DejaVuSans-100"/>
       <use x="723.242188" xlink:href="#DejaVuSans-101"/>
       <use x="784.765625" xlink:href="#DejaVuSans-112"/>
       <use x="848.242188" xlink:href="#DejaVuSans-108"/>
       <use x="876.025391" xlink:href="#DejaVuSans-111"/>
       <use x="937.207031" xlink:href="#DejaVuSans-121"/>
      </g>
     </g>
    </g>
    <g id="ytick_31">
     <g id="line2d_77">
      <path clip-path="url(#p5c3f5d7c4f)" d="M 135.285937 11.492129 
L 492.405937 11.492129 
" style="fill:none;stroke:#b0b0b0;stroke-linecap:square;stroke-width:0.8;"/>
     </g>
     <g id="line2d_78">
      <g>
       <use style="stroke:#000000;stroke-width:0.8;" x="135.285937" xlink:href="#mc896c693c3" y="11.492129"/>
      </g>
     </g>
     <g id="text_40">
      <!-- rabbitmq.deploy -->
      <defs>
       <path d="M 14.796875 27.296875 
Q 14.796875 17.390625 18.875 11.75 
Q 22.953125 6.109375 30.078125 6.109375 
Q 37.203125 6.109375 41.296875 11.75 
Q 45.40625 17.390625 45.40625 27.296875 
Q 45.40625 37.203125 41.296875 42.84375 
Q 37.203125 48.484375 30.078125 48.484375 
Q 22.953125 48.484375 18.875 42.84375 
Q 14.796875 37.203125 14.796875 27.296875 
z
M 45.40625 8.203125 
Q 42.578125 3.328125 38.25 0.953125 
Q 33.9375 -1.421875 27.875 -1.421875 
Q 17.96875 -1.421875 11.734375 6.484375 
Q 5.515625 14.40625 5.515625 27.296875 
Q 5.515625 40.1875 11.734375 48.09375 
Q 17.96875 56 27.875 56 
Q 33.9375 56 38.25 53.625 
Q 42.578125 51.265625 45.40625 46.390625 
L 45.40625 54.6875 
L 54.390625 54.6875 
L 54.390625 -20.796875 
L 45.40625 -20.796875 
z
" id="DejaVuSans-113"/>
      </defs>
      <g transform="translate(45.71875 15.291348)scale(0.1 -0.1)">
       <use xlink:href="#DejaVuSans-114"/>
       <use x="41.113281" xlink:href="#DejaVuSans-97"/>
       <use x="102.392578" xlink:href="#DejaVuSans-98"/>
       <use x="165.869141" xlink:href="#DejaVuSans-98"/>
       <use x="229.345703" xlink:href="#DejaVuSans-105"/>
       <use x="257.128906" xlink:href="#DejaVuSans-116"/>
       <use x="296.337891" xlink:href="#DejaVuSans-109"/>
       <use x="393.75" xlink:href="#DejaVuSans-113"/>
       <use x="457.226562" xlink:href="#DejaVuSans-46"/>
       <use x="489.013672" xlink:href="#DejaVuSans-100"/>
       <use x="552.490234" xlink:href="#DejaVuSans-101"/>
       <use x="614.013672" xlink:href="#DejaVuSans-112"/>
       <use x="677.490234" xlink:href="#DejaVuSans-108"/>
       <use x="705.273438" xlink:href="#DejaVuSans-111"/>
       <use x="766.455078" xlink:href="#DejaVuSans-121"/>
      </g>
     </g>
    </g>
    <g id="text_41">
     <!-- Transitions -->
     <g transform="translate(14.798437 167.763031)rotate(-90)scale(0.1 -0.1)">
      <use xlink:href="#DejaVuSans-84"/>
      <use x="60.865234" xlink:href="#DejaVuSans-114"/>
      <use x="101.978516" xlink:href="#DejaVuSans-97"/>
      <use x="163.257812" xlink:href="#DejaVuSans-110"/>
      <use x="226.636719" xlink:href="#DejaVuSans-115"/>
      <use x="278.736328" xlink:href="#DejaVuSans-105"/>
      <use x="306.519531" xlink:href="#DejaVuSans-116"/>
      <use x="345.728516" xlink:href="#DejaVuSans-105"/>
      <use x="373.511719" xlink:href="#DejaVuSans-111"/>
      <use x="434.693359" xlink:href="#DejaVuSans-110"/>
      <use x="498.072266" xlink:href="#DejaVuSans-115"/>
     </g>
    </g>
   </g>
   <g id="patch_3">
    <path d="M 135.285937 273.312 
L 135.285937 7.2 
" style="fill:none;stroke:#000000;stroke-linecap:square;stroke-linejoin:miter;stroke-width:0.8;"/>
   </g>
   <g id="patch_4">
    <path d="M 135.285937 273.312 
L 492.405937 273.312 
" style="fill:none;stroke:#000000;stroke-linecap:square;stroke-linejoin:miter;stroke-width:0.8;"/>
   </g>
  </g>
 </g>
 <defs>
  <clipPath id="p5c3f5d7c4f">
   <rect height="266.112" width="357.12" x="135.285937" y="7.2"/>
  </clipPath>
 </defs>
</svg>
